DBRep_DrawableShape

CASCADE Topology V1, (c) Matra-Datavision
Locations 0
Curve2ds 138
1 0 0 1 0 
1 0 0 1 0 
1 0.336675041929 0.10000000000000009 0 -1 
1 4.1267034369279996 0 0 1 
1 0 -2 1 0 
1 0 0 1 0 
1 1.6633249580710001 0.10000000000000009 0 -1 
1 5.2980745238419997 0 0 1 
1 0 0 0 1 
1 0 0 1 0 
2 1 1 1 0 -0 1 1.2
1 0 0.10000000000000001 1 0 
2 1 1 1 0 -0 1 1.2
1 0 0.10000000000000001 1 0 
1 2 0 0 1 
1 0 0 1 0 
2 1 1 1 0 -0 1 1.2
1 0 0.10000000000000001 1 0 
1 0 2 1 0 
1 0 0 1 0 
2 1 1 1 0 -0 1 1.2
1 0 0.10000000000000001 1 0 
1 5.697499763722 0 0 1 
1 0.336675041929 -0.10000000000000009 0 1 
1 0 2.1000000000000001 1 0 
2 1 1 1 0 -0 1 1.2
1 0 0 0 1 
1 0 2 1 0 
2 1 1 1 0 -0 1 1.2
1 0 2.1000000000000001 1 0 
1 2 0 0 1 
1 0 2 1 0 
2 1 1 1 0 -0 1 1.2
1 0 2.1000000000000001 1 0 
1 0 2 1 0 
1 0 -2 1 0 
2 1 1 1 0 -0 1 1.2
1 0 2.1000000000000001 1 0 
1 1.4468074685899999 0.95399025470210996 -0.33166812517508742 0.94339612822124874 
1 0.69161941969763618 0.60738667490691356 0.24416888506007683 -0.96973272377935094 
1 0.32369746732600002 0.31858594848099997 0.93577124049654514 0.35260769342082865 
1 -0.46529421644746327 0.52716468390722226 0.99582695425872658 0.09126158650707504 
1 0.68911608308200001 0.68761002080599998 -0.33166812517508742 0.94339612822124874 
1 0.62267514192656415 0.59002720355789262 0.24416888506007683 -0.96973272377935094 
1 0.03287907458299999 1.0903770727639701 0.93577124049654514 0.35260769342082865 
1 -0.48360049841832897 0.72691892571330441 0.99582695425872658 0.09126158650707504 
1 3.7272781970470001 0 0 1 
1 0.336675041929 -0.10000000000000009 0 1 
1 1.6633249580710001 -0.10000000000000009 0 1 
1 2.555907110133 0 0 1 
1 0.75 1.2 -1 0 
1 0.19999999999999996 -0.75 0 -1 
1 1.5 0.59999999999999998 0 1 
1 0.19999999999999996 0.60000000000000009 0 -1 
1 0.75 1.8 -1 0 
1 0.19999999999999996 -0.75 0 -1 
1 1.6633249580710001 -0.10000000000000009 0 1 
1 2.555907110133 0 0 1 
1 2.1564818702520001 0 0 1 
1 0.336675041929 0.10000000000000009 0 -1 
1 0 1.3 1 0 
2 1.2 -0.5 1 0 -0 1 1.2
1 -0.10000000000000009 -1.2 1 0 
1 0.099999999999999867 0.5 1 0 
1 1.6633249580710001 0.10000000000000009 0 -1 
1 0.98511078333799995 0 0 1 
1 0.48040187454799999 -0.79457954560999999 0.96592582628894397 0.25881904510298503 
1 -0.25838025836999651 0.099999999999999978 1 0 
1 0.60162423186300007 -0.24868288387399995 -0.25881904510298503 0.96592582628894397 
1 0.099999999999999978 -0.39592102929085005 0 -1 
1 0.45451997003699995 -0.69798696298200003 0.96592582628894397 0.25881904510298503 
1 -0.25838025837025536 0.099999999999999978 1 0 
1 1.6633249580710001 0.10000000000000009 0 -1 
1 0.98511078333799995 0 0 1 
1 0.58568554345699997 0 0 1 
1 1.6633249580710001 -0.10000000000000009 0 1 
7 0 0  8 9 2  0.75628746645199996 0.41794218666299998  0.78489038181299997 0.42425337288600001  0.81349329617300004 0.43078324073899998  0.84209621053200001 0.43752392248299998  0.87069912489300005 0.44446716847000001  0.89930203925399999 0.451604368014  0.92790495361600001 0.45892657156900002  0.95650786797700005 0.46642451456400003  0.98511078333799995 0.47408864263099998 
 3.8978801200420001 9 4.1267034369279996 9
3 0.30634222353984542 -0.90000000000000002 -1 0 -0 -1 1.2423314164920001 1.2
7 0 0  8 9 2  0.88059994638399997 0.43675302336100003  0.87634380219499997 0.45145134187500002  0.87208765900499996 0.46609062591299999  0.867831515818 0.48067047320900003  0.86357537262700002 0.49519048031200003  0.85931922944000005 0.50965024609499998  0.85506308624799998 0.52404937173900001  0.85080694306000004 0.53838746078999999  0.84655079887100004 0.55266412251599994 
 5.4025853607950003 9 5.4366345083079999 9
3 -0.90000000000000002 -2.9619711455729121 0 1 -1 0 4.6364439661880006 1.2
7 0 0  8 9 2  0.72430984873899995 0.51453476929200004  0.75690996631399998 0.52148047787700003  0.78951008288699998 0.52871868282199996  0.82211019946599995 0.53623813607399995  0.85471031603500003 0.54402692620899995  0.88731043261599996 0.55207251690199999  0.91991054918699999 0.56036178892400001  0.95251066576300003 0.56888108550100003  0.98511078333799995 0.577616260672 
 3.8659025023279998 9 4.1267034369279996 9
3 0.27954730429603691 -0.90000000000000002 -1 0 -0 -1 1.2423314164920001 1.2
1 0 1.3 1 0 
2 1.2 -0.5 1 0 -0 1 1.2
1 0.75 1.2 -1 0 
1 2.2000000000000002 -0.75 0 -1 
1 1.5 0.59999999999999998 0 1 
1 2.2000000000000002 0.60000000000000009 0 -1 
1 0.75 1.8 -1 0 
1 2.2000000000000002 -0.75 0 -1 
1 1.6633249580710001 -0.10000000000000009 0 1 
1 0.58568554345699997 0 0 1 
1 2.1564818702520001 0 0 1 
1 0.336675041929 0.10000000000000009 0 -1 
1 0 1.8999999999999999 1 0 
2 1.2 -0.5 1 0 -0 1 1.2
1 -0.10000000000000009 -1.8 1 0 
1 0.099999999999999867 0.5 1 0 
1 1.6633249580710001 0.10000000000000009 0 -1 
1 0.98511078333799995 0 0 1 
1 0 1.8999999999999999 1 0 
2 1.2 -0.5 1 0 -0 1 1.2
1 3.378818804576679e-13 0.80000000000004823 1 5.2004893369604321e-17 
1 0.80000000000041926 3.0750094327508765e-13 7.0242297078394001e-14 1 
1 0 0 1 5.2004893369604321e-17 
1 0.8000000000002474 1.7291415711491035e-13 7.0242297078394001e-14 1 
1 1.9999999999998574 9.0782585787287334e-13 -6.0677931866703756e-14 1 
1 0.80000000000017735 -3.2251978865360797e-14 7.5611739092096286e-13 -1 
1 0 0 7.0242297078394001e-14 1 
1 0 0 1 5.2004893369604321e-17 
1 -1.1986384063499927e-13 2.0000000000009477 1 -1.7726500866899986e-17 
1 0 0 1 -1.1102230246251565e-16 
1 2.0323958314624139e-13 0.80000000000052018 1 5.2004893369604321e-17 
1 0 0 7.0242297078394001e-14 1 
1 2.0000000000009477 7.1533339756904228e-13 -6.0677931866703756e-14 1 
1 0 0 7.5611739092096286e-13 -1 
1 -1.8991755059304615e-13 1.9999999999998574 1 -1.7726500866899986e-17 
1 5.155875726359227e-13 -0.80000000000071259 1 -1.1102230246251565e-16 
1 0 0 1 0 
1 0 -0.60000000000000009 1 0 
1 0 0 1 0 
1 0 0 1 0 
1 0 0 0 1 
1 0 0 1 0 
1 1.1000000000000829 0 0 1 
1 0 0 1 0 
1 0 3 1 0 
1 0 0 1 0 
1 0 0.10000000000028353 1 0 
1 0 0 0 1 
1 3 0 0 1 
1 0 0 0 -1 
1 1.1000000000000829 0 0 1 
1 0 0.10000000000028364 1 0 
1 0 3 1 0 
1 6.5030619778028154e-13 -0.10000000000028354 1 0 
1 3 0 0 1 
1 1.1000000000000829 -3.15636405900932e-13 0 -1 
Curves 69
1 -1 -1 -1 0 0 1 
1 -1 -1.1000000000000001 -0.663324958071 0 1 0 
1 -1 1 -1 0 0 1 
1 -1 -1.1000000000000001 0.663324958071 0 1 0 
1 -1 -1 -1 1 0 -0 
2 0 -1 0 0 1 0 0 -0 1 1 0 -0 1.2
2 0 -1 0 0 1 0 0 -0 1 1 0 -0 1.2
1 -1 -1 1 1 0 -0 
2 0 -1 0 0 1 0 0 -0 1 1 0 -0 1.2
1 1 -1 -1 0 0 1 
2 0 -1 0 0 1 0 0 -0 1 1 0 -0 1.2
1 -0.663324958071 -1.1000000000000001 1 0 1 0 
2 0 1 0 0 1 0 0 -0 1 1 0 -0 1.2
1 -1 1 -1 1 0 -0 
2 0 1 0 0 1 0 0 -0 1 1 0 -0 1.2
1 -1 1 1 1 0 -0 
2 0 1 0 0 1 0 0 -0 1 1 0 -0 1.2
1 1 1 -1 0 0 1 
2 0 1 0 0 1 0 0 -0 1 1 0 -0 1.2
1 -0.046009745297890002 1 0.44680746858999998 0.94339612822124874 0 -0.33166812517508742 
1 -0.68141405151900003 1 -0.67630253267399998 0.35260769342082865 0 0.93577124049654514 
1 -0.31238997919400002 1 -0.31088391691799999 0.94339612822124874 0 -0.33166812517508742 
1 0.090377072763970001 1 -0.96712092541700001 0.35260769342082865 0 0.93577124049654514 
1 -0.663324958071 -1.1000000000000001 -1 0 1 0 
1 0.663324958071 -1.1000000000000001 -1 0 1 0 
1 -0.25 0.20000000000000001 -1 -1 -0 0 
1 0.5 -0.40000000000000002 -1 -0 1 0 
1 -0.25 0.80000000000000004 -1 -1 -0 0 
1 0.663324958071 -1.1000000000000001 -1 0 1 0 
1 1 -1.1000000000000001 -0.663324958071 0 1 0 
2 0 0.20000000000000001 0 0 1 0 0 -0 1 1 0 -0 1.2
1 1 0.20000000000000001 -1.1000000000000001 0 0 1 
1 1 -1.1000000000000001 0.663324958071 0 1 0 
1 1 -0.20542045439000001 -0.51959812545200001 0 -0.25881904510298503 0.96592582628894397 
1 1 -0.75131711612600005 -0.39837576813699999 0 -0.96592582628894397 -0.25881904510298503 
1 1 -0.30201303701799997 -0.54548002996300005 0 -0.25881904510298503 0.96592582628894397 
1 1 -1.1000000000000001 0.663324958071 0 1 0 
1 0.663324958071 -1.1000000000000001 1 0 1 0 
3 0 -0.44817397053399999 0 0 0.96592582628894397 0.25881904510298503 0 0.25881904510298503 -0.96592582628894397 -1 0 0 1.2423314164920001 1.2
3 0 -3.514632144608 0 0 -0.25881904510298503 0.96592582628894397 0 0.96592582628894397 0.25881904510298503 -1 0 0 4.6364439661879997 1.2
3 0 -0.34464635249300002 0 0 0.96592582628894397 0.25881904510298503 0 0.25881904510298503 -0.96592582628894397 -1 0 0 1.2423314164920001 1.2
2 0 0.20000000000000001 0 0 1 0 0 -0 1 1 0 -0 1.2
1 -0.25 0.20000000000000001 1 -1 -0 0 
1 0.5 -0.40000000000000002 1 -0 1 0 
1 -0.25 0.80000000000000004 1 -1 -0 0 
1 0.663324958071 -1.1000000000000001 1 0 1 0 
1 1 -1.1000000000000001 -0.663324958071 0 1 0 
2 0 0.80000000000000004 0 0 1 0 0 -0 1 1 0 -0 1.2
1 1 0.80000000000000004 -1.1000000000000001 0 0 1 
1 1 -1.1000000000000001 0.663324958071 0 1 0 
2 0 0.80000000000000004 0 0 1 0 0 -0 1 1 0 -0 1.2
1 -0.39984400920199997 0.37879249414600002 0.51268510564500003 0.25881904510298503 0.96592582628894397 0 
1 0.32629468774999998 0.18422421670399999 0.239068990984 0.25881904510298503 0.96592582628894397 0 
1 0.84393277795499999 2.1160758692820001 0.239068990984 -0.90767337119013336 0.24321034680203571 0.34202014332605024 
1 0.062001816110519997 0.255041278225 -0.51268510564500003 0.25881904510298503 0.96592582628894397 0 
1 0.57963990631600004 2.1868929308039999 -0.51268510564500003 0.33036608954900987 -0.088521326901382646 0.93969262078602822 
1 -0.66413688084199995 0.449609555667 -0.239068990984 0.25881904510298503 0.96592582628894397 0 
1 0.57963990631600004 2.1868929308039999 -0.51268510564500003 -0.90767337119013336 0.24321034680203571 0.34202014332605024 
1 -0.146498790637 2.3814612082450002 -0.239068990984 0.33036608954900987 -0.088521326901382646 0.93969262078602822 
1 0.5 0.80000000000000004 -1.2 0 0 1 
1 0.5 0.20000000000000001 -1.2 0 0 1 
1 0.90000000000000002 -0.36888676876299997 -0.29590386540000002 1 0 0 
1 0.90000000000000002 -0.65358771837600005 0.76661454351799996 1 0 0 
1 3.8999999999999999 -0.36888676876299997 -0.29590386540000002 0 -0.25881904510298503 0.96592582628894397 
1 0.90000000000000002 -0.27229418613400003 -0.27002196088899999 1 0 0 
1 3.8999999999999999 -0.36888676876299997 -0.29590386540000002 0 0.96592582628894397 0.25881904510298503 
1 0.90000000000000002 -0.55699513574699999 0.79249644802899999 1 0 0 
1 3.8999999999999999 -0.27229418613400003 -0.27002196088899999 0 -0.25881904510298503 0.96592582628894397 
1 3.8999999999999999 -0.65358771837600005 0.76661454351799996 0 0.96592582628894397 0.25881904510298503 
Polygon3D 0
PolygonOnTriangulations 0
Surfaces 26
1 -1 -1 -1 1 0 -0 0 0 1 0 -1 0 
1 -1 -1 -1 -0 1 0 0 0 1 1 0 -0 
2 0 -1.1000000000000001 0 0 1 0 0 -0 1 1 0 -0 1.2
1 -1 1 -1 -0 1 0 0 0 1 1 0 -0 
2 0 -1.1000000000000001 0 0 1 0 0 -0 1 1 0 -0 1.2
1 -1 -1 -1 0 0 1 1 0 -0 -0 1 0 
1 -1 -1 1 0 0 1 1 0 -0 -0 1 0 
2 0 -1.1000000000000001 0 0 1 0 0 -0 1 1 0 -0 1.2
1 1 -1 -1 1 0 -0 0 0 1 0 -1 0 
2 0 -1.1000000000000001 0 0 1 0 0 -0 1 1 0 -0 1.2
2 0 -1.1000000000000001 0 0 1 0 0 -0 1 1 0 -0 1.2
1 1 -1 -1 1 0 -0 0 0 1 0 -1 0 
2 0 -1.1000000000000001 0 0 1 0 0 -0 1 1 0 -0 1.2
1 0.32629468774999998 0.18422421670399999 0.239068990984 0.33036608954900987 -0.088521326901382646 0.93969262078602822 0.25881904510296189 0.96592582628895018 -6.5988881026157754e-14 -0.90767337119036751 0.24321034680216128 0.3420201433253397 
1 -0.66413688084199995 0.449609555667 -0.239068990984 -0.90767337119013336 0.24321034680203571 0.34202014332605024 0.33036608954969632 -0.088521326901566555 0.93969262078576965 0.25881904510290682 0.96592582628896495 -4.5269343829090758e-14 
1 0.062001816110519997 0.255041278225 -0.51268510564500003 0.33036608954900987 -0.088521326901382646 0.93969262078602822 0.25881904510296189 0.96592582628895018 -6.5988881026157754e-14 -0.90767337119036751 0.24321034680216128 0.3420201433253397 
1 0.062001816110519997 0.255041278225 -0.51268510564500003 -0.90767337119013336 0.24321034680203571 0.34202014332605024 0.33036608954969632 -0.088521326901566555 0.93969262078576965 0.25881904510290682 0.96592582628896495 -4.5269343829090758e-14 
1 0.5 0.20000000000000001 -1.2 -0 1 0 0 0 1 1 0 -0 
1 0.5 0.20000000000000001 -1.2 1 0 -0 0 0 1 0 -1 0 
1 0.5 0.80000000000000004 -1.2 -0 1 0 0 0 1 1 0 -0 
1 0.90000000000000002 -0.27229418613400003 -0.27002196088899999 0 0.96592582628894397 0.25881904510298503 0 -0.25881904510298503 0.96592582628894397 1 0 -0 
1 0.90000000000000002 -0.36888676876299997 -0.29590386540000002 0 -0.25881904510298503 0.96592582628894397 1 0 0 -0 0.96592582628894397 0.25881904510298503 
1 0.90000000000000002 -0.36888676876299997 -0.29590386540000002 0 0.96592582628894397 0.25881904510298503 0 -0.25881904510298503 0.96592582628894397 1 0 -0 
1 0.90000000000000002 -0.65358771837600005 0.76661454351799996 0 -0.25881904510298503 0.96592582628894397 1 0 0 -0 0.96592582628894397 0.25881904510298503 
1 0.57963990631600004 2.1868929308039999 -0.51268510564500003 0.25881904510298503 0.96592582628894397 0 0.33036608954899177 -0.088521326901450495 0.93969262078602822 0.9076733711903674 -0.24321034680216119 -0.3420201433253397 
1 3.8999999999999999 -0.36888676876299997 -0.29590386540000002 1 0 0 0 -0.25881904510298503 0.96592582628894397 0 -0.96592582628894397 -0.25881904510298503 
Triangulations 0

TShapes 171
Ve
1.0001000025e-07
-1 -1 -0.663324958071
0 0

0101101
*
Ve
1.0001000025e-07
-1 -1 0.663324958071
0 0

0101101
*
Ed
 1.0001000025e-07 1 1 0
1  1 0 0.336675041929 1.663324958071
2  1 1 0 0.336675041929 1.663324958071
2  2 2 0 0.336675041929 1.663324958071
0

0101000
+171 0 -170 0 *
Ve
1.0001000025e-07
-1 1 -0.663324958071
0 0

0101101
*
Ed
 1.00005e-07 1 1 0
1  2 0 0.1 2.1
2  3 1 0 0.1 2.1
2  4 3 0 0.1 2.1
0

0101000
+171 0 -168 0 *
Ve
1.0001000025e-07
-1 1 0.663324958071
0 0

0101101
*
Ed
 1.0001000025e-07 1 1 0
1  3 0 0.336675041929 1.663324958071
2  5 1 0 0.336675041929 1.663324958071
2  6 4 0 0.336675041929 1.663324958071
0

0101000
+168 0 -166 0 *
Ed
 1.00005e-07 1 1 0
1  4 0 0.1 2.1
2  7 1 0 0.1 2.1
2  8 5 0 0.1 2.1
0

0101000
+170 0 -166 0 *
Wi

0101000
-169 0 +167 0 +165 0 -164 0 *
Fa
0  1e-07 1 0

0111000
+163 0 *
Ve
1.0001000025e-07
-0.663324958071 -1 -1
0 0

0101101
*
Ve
1.0001000025e-07
0.663324958071 -1 -1
0 0

0101101
*
Ed
 1.0001000025e-07 1 1 0
1  5 0 0.336675041929 1.663324958071
2  9 2 0 0.336675041929 1.663324958071
2  10 6 0 0.336675041929 1.663324958071
0

0101000
+161 0 -160 0 *
Ed
 1.00005e-07 1 1 0
1  6 0 3.72727819704689 4.12670343692759
2  11 2 0 3.72727819704689 4.12670343692759
2  12 3 0 3.72727819704689 4.12670343692759
0

0101000
+161 0 -171 0 *
Ve
1.0001000025e-07
-0.663324958071 -1 1
0 0

0101101
*
Ed
 1.00005e-07 1 1 0
1  7 0 5.29807452384178 5.69749976372249
2  13 2 0 5.29807452384178 5.69749976372249
2  14 5 0 5.29807452384178 5.69749976372249
0

0101000
+170 0 -157 0 *
Ve
1.0001000025e-07
0.663324958071 -1 1
0 0

0101101
*
Ed
 1.0001000025e-07 1 1 0
1  8 0 0.336675041929 1.663324958071
2  15 2 0 0.336675041929 1.663324958071
2  16 7 0 0.336675041929 1.663324958071
0

0101000
+157 0 -155 0 *
Ve
1.0001000025e-07
1 -1 0.663324958071
0 0

0101101
*
Ed
 1.00005e-07 1 1 0
1  9 0 0.585685543457095 0.985110783337801
2  17 2 0 0.585685543457095 0.985110783337801
2  18 8 0 0.585685543457095 0.985110783337801
0

0101000
+155 0 -153 0 *
Ve
1.0001000025e-07
1 -1 -0.663324958071
0 0

0101101
*
Ed
 1.0001000025e-07 1 1 0
1  10 0 0.336675041929 1.663324958071
2  19 2 0 0.336675041929 1.663324958071
2  20 9 0 0.336675041929 1.663324958071
0

0101000
+151 0 -153 0 *
Ed
 1.00005e-07 1 1 0
1  11 0 2.15648187025199 2.5559071101327
2  21 2 0 2.15648187025199 2.5559071101327
2  22 10 0 2.15648187025199 2.5559071101327
0

0101000
+151 0 -160 0 *
Wi

0101000
-159 0 +158 0 +169 0 +156 0 +154 0 +152 0 -150 0 +149 0 *
Fa
0  1e-07 2 0

0111000
+148 0 *
Ve
1.0001000025e-07
-0.663324958071 1 1
0 0

0101101
*
Ed
 1.00005e-07 1 1 0
1  12 0 0.1 2.1
2  23 5 0 0.1 2.1
2  24 7 0 0.1 2.1
0

0101000
+157 0 -146 0 *
Ed
 1.00005e-07 1 1 0
1  13 0 5.29807452384178 5.69749976372249
2  25 5 0 5.29807452384178 5.69749976372249
2  26 4 0 5.29807452384178 5.69749976372249
0

0101000
+166 0 -146 0 *
Wi

0101000
-164 0 +156 0 +145 0 -144 0 *
Fa
0  1e-07 5 0

0111000
+143 0 *
Ve
1.0001000025e-07
-0.663324958071 1 -1
0 0

0101101
*
Ve
1.0001000025e-07
0.663324958071 1 -1
0 0

0101101
*
Ed
 1.0001000025e-07 1 1 0
1  14 0 0.336675041929 1.663324958071
2  27 4 0 0.336675041929 1.663324958071
2  28 6 0 0.336675041929 1.663324958071
0

0101000
+141 0 -140 0 *
Ed
 1.00005e-07 1 1 0
1  15 0 3.72727819704689 4.12670343692759
2  29 4 0 3.72727819704689 4.12670343692759
2  30 3 0 3.72727819704689 4.12670343692759
0

0101000
+141 0 -168 0 *
Ve
1.0001000025e-07
0.663324958071 1 1
0 0

0101101
*
Ed
 1.0001000025e-07 1 1 0
1  16 0 0.336675041929 1.663324958071
2  31 4 0 0.336675041929 1.663324958071
2  32 7 0 0.336675041929 1.663324958071
0

0101000
+146 0 -137 0 *
Ve
1.0001000025e-07
1 1 0.663324958071
0 0

0101101
*
Ed
 1.00005e-07 1 1 0
1  17 0 0.585685543457095 0.985110783337801
2  33 4 0 0.585685543457095 0.985110783337801
2  34 11 0 0.585685543457095 0.985110783337801
0

0101000
+137 0 -135 0 *
Ve
1.0001000025e-07
1 1 -0.663324958071
0 0

0101101
*
Ed
 1.0001000025e-07 1 1 0
1  18 0 0.336675041929 1.663324958071
2  35 4 0 0.336675041929 1.663324958071
2  36 12 0 0.336675041929 1.663324958071
0

0101000
+133 0 -135 0 *
Ed
 1.00005e-07 1 1 0
1  19 0 2.15648187025199 2.5559071101327
2  37 4 0 2.15648187025199 2.5559071101327
2  38 13 0 2.15648187025199 2.5559071101327
0

0101000
+133 0 -140 0 *
Wi

0101000
-139 0 +138 0 +165 0 +144 0 +136 0 +134 0 -132 0 +131 0 *
Ve
1.0001000025e-07
-0.233391959676 1 0.512685105645
0 0

0101101
*
Ve
1.0001000025e-07
0.544881150089 1 0.239068990984
0 0

0101101
*
Ed
 1.0001000025e-07 1 1 0
1  20 0 -0.19862516791483 0.626344414303488
2  39 4 0 -0.19862516791483 0.626344414303488
2  40 14 0 -0.19862516791483 0.626344414303488
0

0101000
+129 0 -128 0 *
Ve
1.0001000025e-07
-0.516660205761 1 -0.239068990984
0 0

0101101
*
Ed
 1.0001000025e-07 1 1 0
1  21 0 0.467244047228889 1.27059647365116
2  41 4 0 0.467244047228889 1.27059647365116
2  42 15 0 0.467244047228889 1.27059647365116
0

0101000
+126 0 -129 0 *
Ve
1.0001000025e-07
0.261612904005 1 -0.512685105645
0 0

0101101
*
Ed
 1.0001000025e-07 1 1 0
1  22 0 -0.216526462698303 0.608443119520958
2  43 4 0 -0.216526462698303 0.608443119520958
2  44 16 0 -0.216526462698303 0.608443119520958
0

0101000
+126 0 -124 0 *
Ed
 1.0001000025e-07 1 1 0
1  23 0 0.485627042279007 1.28897946870093
2  45 4 0 0.485627042279007 1.28897946870093
2  46 17 0 0.485627042279007 1.28897946870093
0

0101000
+124 0 -128 0 *
Wi

0101000
-127 0 -125 0 +123 0 +122 0 *
Fa
0  1e-07 4 0

0111000
+130 0 +121 0 *
Ed
 1.00005e-07 1 1 0
1  24 0 0.1 2.1
2  47 3 0 0.1 2.1
2  48 6 0 0.1 2.1
0

0101000
+161 0 -141 0 *
Wi

0101000
+158 0 +167 0 -138 0 -119 0 *
Fa
0  1e-07 3 0

0111000
+118 0 *
Ve
1.0001000025e-07
0.663324958071 0.2 -1
0 0

0101101
*
Ed
 1.00005e-07 1 1 0
1  25 0 0.1 1.3
2  49 6 0 0.1 1.3
2  50 10 0 0.1 1.3
0

0101000
+160 0 -116 0 *
Ve
1.0001000025e-07
0.5 0.2 -1
0 0

0101101
*
Ed
 1.0001000025e-07 1 1 0
1  26 0 -0.913324958071 -0.75
2  51 6 0 -0.913324958071 -0.75
2  52 18 0 -0.913324958071 -0.75
0

0101000
+116 0 -114 0 *
Ve
1.0001000025e-07
0.5 0.8 -1
0 0

0101101
*
Ed
 1.0001000025e-07 1 1 0
1  27 0 0.6 1.2
2  53 6 0 0.6 1.2
2  54 19 0 0.6 1.2
0

0101000
+114 0 -112 0 *
Ve
1.0001000025e-07
0.663324958071 0.8 -1
0 0

0101101
*
Ed
 1.0001000025e-07 1 1 0
1  28 0 -0.913324958071 -0.75
2  55 6 0 -0.913324958071 -0.75
2  56 20 0 -0.913324958071 -0.75
0

0101000
+110 0 -112 0 *
Ed
 1.00005e-07 1 1 0
1  29 0 1.9 2.1
2  57 6 0 1.9 2.1
2  58 13 0 1.9 2.1
0

0101000
+110 0 -140 0 *
Wi

0101000
-139 0 -119 0 +159 0 +115 0 +113 0 +111 0 -109 0 +108 0 *
Fa
0  1e-07 6 0

0111000
+107 0 *
Ve
1.0001000025e-07
1 0.2 -0.663324958071
0 0

0101101
*
Ed
 1.00005e-07 1 1 0
1  30 0 0.1 1.3
2  59 10 0 0.1 1.3
2  60 9 0 0.1 1.3
0

0101000
+151 0 -105 0 *
Ed
 1.00005e-07 1 1 0
1  31 0 2.15648187025199 2.5559071101327
2  61 10 0 2.15648187025199 2.5559071101327
2  62 18 0 2.15648187025199 2.5559071101327
0

0101000
+105 0 -116 0 *
Wi

0101000
-104 0 +149 0 +115 0 -103 0 *
Fa
0  1e-07 10 0

0111000
+102 0 *
Ve
1.0001000025e-07
1 0.2 0.663324958071
0 0

0101101
*
Ed
 1.0001000025e-07 1 1 0
1  32 0 0.436675041929 1.763324958071
2  63 9 0 0.436675041929 1.763324958071
2  64 18 0 0.436675041929 1.763324958071
0

0101000
+105 0 -100 0 *
Ve
1.0001000025e-07
1 -0.522383739328 0.663324958071
0 0

0101101
*
Ed
 1.00005e-07 1 1 0
1  33 0 0.577616260672 1.3
2  65 9 0 0.577616260672 1.3
2  66 8 0 0.577616260672 1.3
0

0101000
+98 0 -100 0 *
Ve
1.0001000025e-07
1 -0.272294186134 -0.270021960889
0 0

0101101
*
Ed
 1.0001000025e-07 1 1 0
1  34 0 0.258380258369997 1.22465209162858
2  67 9 0 0.258380258369997 1.22465209162858
2  68 21 0 0.258380258369997 1.22465209162858
0

0101000
+96 0 -98 0 *
Ve
1.0001000025e-07
1 -0.368886768763 -0.2959038654
0 0

0101101
*
Ed
 1.0001000025e-07 1 1 0
1  35 0 -0.495921029291134 -0.39592102929085
2  69 9 0 -0.495921029291134 -0.39592102929085
2  70 22 0 -0.495921029291134 -0.39592102929085
0

0101000
+96 0 -94 0 *
Ve
1.0001000025e-07
1 -0.625911357369 0.663324958071
0 0

0101101
*
Ed
 1.0001000025e-07 1 1 0
1  36 0 0.258380258370255 1.25144701087265
2  71 9 0 0.258380258370255 1.25144701087265
2  72 23 0 0.258380258370255 1.25144701087265
0

0101000
+94 0 -92 0 *
Ed
 1.00005e-07 1 1 0
1  37 0 0.1 0.474088642631
2  73 9 0 0.1 0.474088642631
2  74 8 0 0.1 0.474088642631
0

0101000
+153 0 -92 0 *
Wi

0101000
-150 0 +104 0 +99 0 -97 0 -95 0 +93 0 +91 0 -90 0 *
Fa
0  1e-07 9 0

0111000
+89 0 *
Ve
1.0001000025e-07
0.663324958071 0.2 1
0 0

0101101
*
Ed
 1.00005e-07 1 1 0
1  38 0 0.1 1.3
2  75 8 0 0.1 1.3
2  76 7 0 0.1 1.3
0

0101000
+155 0 -87 0 *
Ve
1.0001000025e-07
0.923202113118 -0.653587718376 0.766614543518
0 0

0101101
*
Ed
 1.00005e-07 1 1 0
1  39 0 4.01939235921513 4.12670343692747
2  77 8 0 4.01939235921513 4.12670343692747
2  78 23 0 4.01939235921513 4.12670343692747
0

0101000
+85 0 -92 0 *
Ve
1.0001000025e-07
0.901082338004 -0.556995135747 0.792496448029
0 0

0101101
*
Ed
 1.00005e-07 1 1 0
1  40 0 5.40538560155419 5.43375855421947
2  79 8 0 5.40538560155419 5.43375855421947
2  80 24 0 5.40538560155419 5.43375855421947
0

0101000
+85 0 -83 0 *
Ed
 1.00005e-07 1 1 0
1  41 0 3.99101940654983 4.12670343692747
2  81 8 0 3.99101940654983 4.12670343692747
2  82 21 0 3.99101940654983 4.12670343692747
0

0101000
+83 0 -98 0 *
Ed
 1.00005e-07 1 1 0
1  42 0 0.585685543457095 0.985110783337801
2  83 8 0 0.585685543457095 0.985110783337801
2  84 18 0 0.585685543457095 0.985110783337801
0

0101000
+87 0 -100 0 *
Wi

0101000
-86 0 +152 0 +90 0 -84 0 +82 0 +81 0 +97 0 -80 0 *
Fa
0  1e-07 8 0

0111000
+79 0 *
Ve
1.0001000025e-07
0.5 0.2 1
0 0

0101101
*
Ed
 1.0001000025e-07 1 1 0
1  43 0 -0.913324958071 -0.75
2  85 7 0 -0.913324958071 -0.75
2  86 18 0 -0.913324958071 -0.75
0

0101000
+87 0 -77 0 *
Ve
1.0001000025e-07
0.5 0.8 1
0 0

0101101
*
Ed
 1.0001000025e-07 1 1 0
1  44 0 0.6 1.2
2  87 7 0 0.6 1.2
2  88 19 0 0.6 1.2
0

0101000
+77 0 -75 0 *
Ve
1.0001000025e-07
0.663324958071 0.8 1
0 0

0101101
*
Ed
 1.0001000025e-07 1 1 0
1  45 0 -0.913324958071 -0.75
2  89 7 0 -0.913324958071 -0.75
2  90 20 0 -0.913324958071 -0.75
0

0101000
+73 0 -75 0 *
Ed
 1.00005e-07 1 1 0
1  46 0 1.9 2.1
2  91 7 0 1.9 2.1
2  92 11 0 1.9 2.1
0

0101000
+73 0 -137 0 *
Wi

0101000
-136 0 -145 0 +154 0 +86 0 +76 0 +74 0 -72 0 +71 0 *
Fa
0  1e-07 7 0

0111000
+70 0 *
Ve
1.0001000025e-07
1 0.8 -0.663324958071
0 0

0101101
*
Ed
 1.00005e-07 1 1 0
1  47 0 1.9 2.1
2  93 13 0 1.9 2.1
2  94 12 0 1.9 2.1
0

0101000
+68 0 -133 0 *
Ed
 1.00005e-07 1 1 0
1  48 0 2.15648187025199 2.5559071101327
2  95 13 0 2.15648187025199 2.5559071101327
2  96 20 0 2.15648187025199 2.5559071101327
0

0101000
+68 0 -110 0 *
Wi

0101000
-67 0 +66 0 +108 0 -131 0 *
Fa
0  1e-07 13 0

0111000
+65 0 *
Ve
1.0001000025e-07
1 0.8 0.663324958071
0 0

0101101
*
Ed
 1.0001000025e-07 1 1 0
1  49 0 0.436675041929 1.763324958071
2  97 12 0 0.436675041929 1.763324958071
2  98 20 0 0.436675041929 1.763324958071
0

0101000
+68 0 -63 0 *
Ed
 1.00005e-07 1 1 0
1  50 0 1.9 2.1
2  99 12 0 1.9 2.1
2  100 11 0 1.9 2.1
0

0101000
+63 0 -135 0 *
Wi

0101000
-62 0 +67 0 +132 0 -61 0 *
Fa
0  1e-07 12 0

0111000
+60 0 *
Ed
 1.00005e-07 1 1 0
1  51 0 0.585685543457095 0.985110783337801
2  101 11 0 0.585685543457095 0.985110783337801
2  102 20 0 0.585685543457095 0.985110783337801
0

0101000
+73 0 -63 0 *
Wi

0101000
-71 0 +58 0 +61 0 -134 0 *
Fa
0  1e-07 11 0

0111000
+57 0 *
Ve
1.0001000025e-07
0.117794081003 2.310644146724 0.512685105645
0 0

0101101
*
Ed
 1.0001000025e-07 1 1 0
1  52 0 0.643121333902673 1.99999999999986
2  103 14 0 0.643121333902673 1.99999999999986
2  104 15 0 0.643121333902673 1.99999999999986
0

0101000
+129 0 -55 0 *
Ve
1.0001000025e-07
0.843932777955 2.116075869282 0.239068990984
0 0

0101101
*
Ed
 1.0001000025e-07 1 1 0
1  53 0 0.844553237001719 1.99999999999986
2  105 14 0 0.844553237001719 1.99999999999986
2  106 17 0 0.844553237001719 1.99999999999986
0

0101000
+128 0 -53 0 *
Ed
 1.0001000025e-07 1 1 0
1  54 0 0 0.800000000000048
2  107 14 0 0 0.800000000000048
2  108 25 0 0 0.800000000000048
0

0101000
+53 0 -55 0 *
Wi

0101000
-54 0 +127 0 +52 0 +51 0 *
Fa
0  1e-07 14 0

0111000
+50 0 *
Ve
1.0001000025e-07
0.579639906316 2.186892930804 -0.512685105645
0 0

0101101
*
Ed
 1.0001000025e-07 1 1 0
1  55 0 0.77123802004249 2.00000000000095
2  109 17 0 0.77123802004249 2.00000000000095
2  110 16 0 0.77123802004249 2.00000000000095
0

0101000
+124 0 -48 0 *
Ed
 1.0001000025e-07 1 1 0
1  56 0 0 0.800000000000177
2  111 17 0 0 0.800000000000177
2  112 25 0 0 0.800000000000177
0

0101000
+48 0 -53 0 *
Wi

0101000
-47 0 +122 0 +52 0 -46 0 *
Fa
0  1e-07 17 0

0111000
+45 0 *
Ve
1.0001000025e-07
-0.146498790637 2.381461208245 -0.239068990984
0 0

0101101
*
Ed
 1.0001000025e-07 1 1 0
1  57 0 0.56980611694332 1.99999999999986
2  113 16 0 0.56980611694332 1.99999999999986
2  114 15 0 0.56980611694332 1.99999999999986
0

0101000
+126 0 -43 0 *
Ed
 1.0001000025e-07 1 1 0
1  58 0 0 0.800000000000713
2  115 16 0 0 0.800000000000713
2  116 25 0 0 0.800000000000713
0

0101000
+48 0 -43 0 *
Wi

0101000
-42 0 +123 0 +47 0 +41 0 *
Fa
0  1e-07 16 0

0111000
+40 0 *
Ed
 1.0001000025e-07 1 1 0
1  59 0 0 0.800000000000419
2  117 15 0 0 0.800000000000419
2  118 25 0 0 0.800000000000419
0

0101000
+43 0 -55 0 *
Wi

0101000
-42 0 +125 0 +54 0 -38 0 *
Fa
0  1e-07 15 0

0111000
+37 0 *
Ed
 1.0001000025e-07 1 1 0
1  60 0 0.2 2.2
2  119 20 0 0.2 2.2
2  120 19 0 0.2 2.2
0

0101000
+112 0 -75 0 *
Wi

0101000
+109 0 +35 0 -72 0 +58 0 -62 0 +66 0 *
Fa
0  1e-07 20 0

0111000
+34 0 *
Ed
 1.0001000025e-07 1 1 0
1  61 0 0.2 2.2
2  121 19 0 0.2 2.2
2  122 18 0 0.2 2.2
0

0101000
+114 0 -77 0 *
Wi

0101000
-32 0 +111 0 +35 0 -74 0 *
Fa
0  1e-07 19 0

0111000
+31 0 *
Wi

0101000
+113 0 +32 0 -76 0 +80 0 -99 0 +103 0 *
Fa
0  1e-07 18 0

0111000
+29 0 *
Ve
1.0001000025e-07
3.9 -0.368886768763 -0.2959038654
0 0

0101101
*
Ed
 1.0001000025e-07 1 1 0
1  62 0 0.1 3
2  123 23 0 0.1 3
2  124 22 0 0.1 3
0

0101000
+94 0 -27 0 *
Ve
1.0001000025e-07
3.9 -0.653587718376 0.766614543518
0 0

0101101
*
Ed
 1.0001000025e-07 1 1 0
1  63 0 0.023202113118 3
2  125 23 0 0.023202113118 3
2  126 24 0 0.023202113118 3
0

0101000
+85 0 -25 0 *
Ed
 1.0001000025e-07 1 1 0
1  64 0 0 1.10000000000008
2  127 23 0 0 1.10000000000008
2  128 26 0 0 1.10000000000008
0

0101000
+27 0 -25 0 *
Wi

0101000
-26 0 +91 0 -84 0 +24 0 -23 0 *
Fa
0  1e-07 23 0

0111000
+22 0 *
Ve
1.0001000025e-07
3.9 -0.272294186134 -0.270021960889
0 0

0101101
*
Ed
 1.0001000025e-07 1 1 0
1  65 0 0.1 3
2  129 22 0 0.1 3
2  130 21 0 0.1 3
0

0101000
+96 0 -20 0 *
Ed
 1.0001000025e-07 1 1 0
1  66 0 0 0.100000000000284
2  131 22 0 0 0.100000000000284
2  132 26 0 0 0.100000000000284
0

0101000
+27 0 -20 0 *
Wi

0101000
-19 0 +93 0 +26 0 +18 0 *
Fa
0  1e-07 22 0

0111000
+17 0 *
Ve
1.0001000025e-07
3.9 -0.556995135747 0.792496448029
0 0

0101101
*
Ed
 1.0001000025e-07 1 1 0
1  67 0 0.00108233800399993 3
2  133 21 0 0.00108233800399993 3
2  134 24 0 0.00108233800399993 3
0

0101000
+83 0 -15 0 *
Ed
 1.0001000025e-07 1 1 0
1  68 0 0 1.10000000000008
2  135 21 0 0 1.10000000000008
2  136 26 0 0 1.10000000000008
0

0101000
+20 0 -15 0 *
Wi

0101000
-19 0 +95 0 -81 0 +14 0 -13 0 *
Fa
0  1e-07 21 0

0111000
+12 0 *
Ed
 1.0001000025e-07 1 1 0
1  69 0 0 0.100000000000284
2  137 24 0 0 0.100000000000284
2  138 26 0 0 0.100000000000284
0

0101000
+25 0 -15 0 *
Wi

0101000
-14 0 -82 0 +24 0 +10 0 *
Fa
0  1e-07 24 0

0111000
+9 0 *
Wi

0101000
-46 0 +41 0 +38 0 -51 0 *
Fa
0  1e-07 25 0

0111000
+7 0 *
Wi

0101000
-23 0 +18 0 +13 0 -10 0 *
Fa
0  1e-07 26 0

0111000
+5 0 *
Sh

0101100
-162 0 -147 0 +142 0 +120 0 +117 0 -106 0 +101 0 +88 0 +78 0 +69 0 
+64 0 +59 0 +56 0 +49 0 -44 0 -39 0 +36 0 -33 0 +30 0 +28 0 
-21 0 -16 0 +11 0 +8 0 +6 0 +4 0 *
So

0100000
+3 0 *
Co

1100000
+2 0 *

+1 0 
##EGADS HEADER FILE-REV 1 ##
0
  1  1  26  27  69  46  0
    2 0 2
1 5 1
ibody
1
1 5 1
iford
5
    2 1 2
1 5 1
ibody
1
1 5 1
iford
4
    2 2 2
1 5 1
ibody
1
1 5 1
iford
2
    2 3 2
1 5 1
ibody
1
1 5 1
iford
3
    2 4 2
1 5 1
ibody
1
1 5 1
iford
1
    2 5 2
1 5 1
ibody
1
1 5 1
iford
4
    2 6 2
1 5 1
ibody
2
1 5 1
iford
3
    2 7 2
1 5 1
ibody
2
1 5 1
iford
5
    2 8 2
1 5 1
ibody
2
1 5 1
iford
4
    2 9 2
1 5 1
ibody
2
1 5 1
iford
6
    2 10 2
1 5 1
ibody
1
1 5 1
iford
4
    2 11 2
1 5 1
ibody
1
1 5 1
iford
6
    2 12 2
1 5 1
ibody
1
1 5 1
iford
3
    2 13 2
1 5 1
ibody
1
1 5 1
iford
3
    2 14 2
1 5 1
ibody
1
1 5 1
iford
3
    2 15 2
1 5 1
ibody
1
1 5 1
iford
6
    2 16 2
1 5 1
ibody
1
1 5 1
iford
4
    2 17 2
1 5 1
ibody
4
1 5 1
iford
3
    2 18 2
1 5 1
ibody
4
1 5 1
iford
4
    2 19 2
1 5 1
ibody
4
1 5 1
iford
5
    2 20 2
1 5 1
ibody
2
1 5 1
iford
2
    2 21 2
1 5 1
ibody
6
1 5 1
iford
6
    2 22 2
1 5 1
ibody
6
1 5 1
iford
3
    2 23 2
1 5 1
ibody
6
1 5 1
iford
5
    2 24 2
1 5 1
ibody
6
1 5 1
iford
4
    2 25 2
1 5 1
ibody
6
1 5 1
iford
2
    0 0 0
