DBRep_DrawableShape

CASCADE Topology V1, (c) Matra-Datavision
Locations 0
Curve2ds 8
1 0 4.1231056256176606 1 0 
1 0 -0 0 1 
1 6.2831853071795862 -0 0 1 
1 0 0 1 0 
1 3.1415926535897931 0 0 1 
1 3.1415926535897931 0 0 1 
1 0 0 1 0 
1 0 4.1231056256176606 1 0 
Curves 4
2 0 -2 0 0 -1 0 0 0 -1 1 0 0 1
1 0 2 0 -5.9404095375989563e-17 -0.97014250014533188 -0.24253562503633297 
7 0 0  1 2 2  0 2 0  1.2246467991473532e-16 -2 1 
 0 2 4.1231056256176606 2
2 0 -2 0 0 -1 0 0 0 -1 1 0 0 1
Polygon3D 0
PolygonOnTriangulations 0
Surfaces 3
10 0 3.1415926535897931 0 4.1231056256176606
3 0 2 0 0 -1 0 0 0 -1 1 0 0 0
0.24497866312686414
10 3.1415926535897931 6.2831853071795862 0 4.1231056256176606
3 0 2 0 0 -1 0 0 0 -1 1 0 0 0
0.24497866312686414
1 0 -2 0 0 -1 0 0 0 -1 1 0 0 
Triangulations 0

TShapes 18
Ve
1e-07
1.22464679914735e-16 -2 1
0 0

0101101
*
Ve
1e-07
-2.44929359829471e-16 -2 -1
0 0

0101101
*
Ed
 1e-07 1 1 0
1  1 0 0 3.14159265358979
2  1 1 0 0 3.14159265358979
0

0101000
-18 0 +17 0 *
Ve
1e-07
0 2 0
0 0

0101101
*
Ed
 1e-07 1 1 0
1  2 0 0 4.12310562561766
2  2 1 0 0 4.12310562561766
2  3 2 0 0 4.12310562561766
0

0101000
-17 0 +15 0 *
Ed
 1e-07 1 1 1
2  4 1 0 0 3.14159265358979
0

0101000
+15 0 -15 0 *
Ed
 1e-05 1 1 0
1  3 0 0 4.12310562561766
2  5 1 0 0 4.12310562561766
2  6 2 0 0 4.12310562561766
0

0101000
+15 0 -18 0 *
Wi

0101100
-16 0 -14 0 +13 0 +12 0 *
Fa
0  1e-07 1 0

0111000
+11 0 *
Ed
 1e-07 1 1 1
2  7 2 0 3.14159265358979 6.28318530717959
0

0101000
+15 0 -15 0 *
Ed
 1e-07 1 1 0
1  4 0 3.14159265358979 6.28318530717959
2  8 2 0 3.14159265358979 6.28318530717959
0

0101000
-17 0 +18 0 *
Wi

0101100
+9 0 +14 0 -8 0 -12 0 *
Fa
0  1e-07 2 0

0111000
+7 0 *
Wi

0101100
+16 0 +8 0 *
Fa
0  1e-07 3 0

0111000
+5 0 *
Sh

0101100
+10 0 +6 0 +4 0 *
So

0100000
+3 0 *
Co

1100000
+2 0 *

+1 0 
##EGADS HEADER FILE-REV 1 ##
0
  1  1  3  3  6  3  2
1 5 1
_body
1
1 5 1
_brch
1
    2 0 5
1 5 2
_body
1 3 
1 5 2
_brch
1 3 
1 5 1
_hist
1
1 7 3
_faceID
1 3 1 
1 9 2
__trace__
1 1 
    2 1 5
1 5 2
_body
1 4 
1 5 2
_brch
1 4 
1 5 1
_hist
1
1 7 3
_faceID
1 4 1 
1 9 2
__trace__
1 2 
    2 2 5
1 5 2
_body
1 2 
1 5 2
_brch
1 2 
1 5 1
_hist
1
1 7 3
_faceID
1 2 1 
1 9 2
__trace__
1 3 
    4 0 4
1 5 2
_body
1 20003 
1 7 5
_edgeID
1 2 1 3 1 
1 6 1
_nface
2
1 9 2
__trace__
1 1 
    4 1 4
1 5 2
_body
1 40003 
1 7 5
_edgeID
1 3 1 4 1 
1 6 1
_nface
2
1 9 2
__trace__
1 2 
    4 2 4
1 5 2
_body
1 -3 
1 7 5
_edgeID
0 0 1 3 1 
1 6 1
_nface
1
1 9 2
__trace__
1 3 
    4 3 4
1 5 2
_body
1 30004 
1 7 5
_edgeID
1 3 1 4 2 
1 6 1
_nface
2
1 9 2
__trace__
1 4 
    4 4 4
1 5 2
_body
1 -3 
1 7 5
_edgeID
0 0 1 4 1 
1 6 1
_nface
1
1 9 2
__trace__
1 5 
    4 5 4
1 5 2
_body
1 20004 
1 7 5
_edgeID
1 2 1 4 1 
1 6 1
_nface
2
1 9 2
__trace__
1 6 
    5 0 3
1 7 1
_nodeID
1
1 6 1
_nedge
3
1 9 2
__trace__
1 1 
    5 1 3
1 7 1
_nodeID
2
1 6 1
_nedge
3
1 9 2
__trace__
1 2 
    5 2 3
1 7 1
_nodeID
3
1 6 1
_nedge
4
1 9 2
__trace__
1 3 
    0 0 0
