DBRep_DrawableShape

CASCADE Topology V2, (c) Matra-Datavision
Locations 0
Curve2ds 24
7 0 0  2 33 17  0 -2.1684043449710089e-18  0.0625 -2.1684043449710093e-18  0.125 -2.1684043449710089e-18  0.18750000000000006 0  0.25 0  0.31249999999999994 0  0.375 0  0.43750000000000006 0  0.5 0  0.56250000000000022 0  0.625 0  0.6875 0  0.75 0  0.8125 0  0.875 0  0.93749999999999989 0  1 0  1.0625000000000004 0  1.125 0  1.1875000000000007 0  1.25 0  1.3125 0  1.375 0  1.4374999999999998 0  1.5 0  1.5625000000000002 0  1.625 0  1.6875 0  1.75 0  1.8125 0  1.875 0  1.9375000000000009 0  2 0 
 0 3 0.125 2 0.25 2 0.375 2 0.5 2 0.625 2 0.75 2 0.875 2 1 2 1.125 2 1.25 2 1.375 2 1.5 2 1.625 2 1.75 2 1.875 2 2 3
7 0 0  2 33 17  0 0  0.0625 0  0.125 0  0.18750000000000006 0  0.25 0  0.31249999999999994 0  0.375 0  0.43750000000000006 0  0.5 0  0.56250000000000022 0  0.625 0  0.6875 0  0.75 0  0.8125 0  0.875 0  0.93749999999999989 0  1 0  1.0625000000000004 0  1.125 0  1.1875000000000007 0  1.25 0  1.3125 0  1.375 0  1.4374999999999998 0  1.5 0  1.5625000000000002 0  1.625 0  1.6875 0  1.75 0  1.8125 0  1.875 0  1.9375000000000009 0  2 0 
 0 3 0.125 2 0.25 2 0.375 2 0.5 2 0.625 2 0.75 2 0.875 2 1 2 1.125 2 1.25 2 1.375 2 1.5 2 1.625 2 1.75 2 1.875 2 2 3
7 0 0  2 33 17  2 0  2.0000000000000004 -0.093749999999999972  2 -0.1875  2.0000000000000004 -0.28125  2 -0.375  2.0000000000000004 -0.46875000000000006  2 -0.5625  2.0000000000000004 -0.65625  2 -0.75  2.0000000000000004 -0.84374999999999978  2 -0.9375  2.0000000000000004 -1.0312500000000002  2 -1.125  2.0000000000000004 -1.2187500000000004  2 -1.3125  2.0000000000000004 -1.40625  2 -1.5  2.0000000000000004 -1.5937500000000004  2 -1.6875  2.0000000000000004 -1.7812500000000007  2 -1.875  2.0000000000000004 -1.9687500000000004  2 -2.0625  2.0000000000000004 -2.1562499999999996  2 -2.25  2.0000000000000004 -2.3437499999999996  2 -2.4375  2.0000000000000004 -2.5312500000000004  2 -2.625  2.0000000000000004 -2.7187500000000009  2 -2.8125  2.0000000000000004 -2.9062500000000004  2 -3 
 0 3 0.1875 2 0.375 2 0.5625 2 0.75 2 0.9375 2 1.125 2 1.3125 2 1.5 2 1.6875 2 1.875 2 2.0625 2 2.25 2 2.4375 2 2.625 2 2.8125 2 3 3
7 0 0  2 33 17  0 6.8846837952829532e-18  0 0.093749999999999972  0 0.1875  0 0.28125  0 0.375  0 0.46875000000000006  0 0.5625  0 0.65625  0 0.75  0 0.84374999999999978  0 0.9375  0 1.0312500000000002  0 1.125  0 1.2187500000000004  0 1.3125  0 1.40625  0 1.5  0 1.5937500000000004  0 1.6875  0 1.7812500000000007  0 1.875  0 1.9687500000000004  0 2.0625  0 2.1562499999999996  0 2.25  0 2.3437499999999996  0 2.4375  0 2.5312500000000004  0 2.625  0 2.7187500000000009  0 2.8125  0 2.9062500000000004  0 3 
 0 3 0.1875 2 0.375 2 0.5625 2 0.75 2 0.9375 2 1.125 2 1.3125 2 1.5 2 1.6875 2 1.875 2 2.0625 2 2.25 2 2.4375 2 2.625 2 2.8125 2 3 3
7 0 0  2 33 17  0 -3  0.0625 -3  0.125 -3  0.18750000000000006 -3  0.25 -3  0.31249999999999994 -3  0.375 -3  0.43750000000000006 -3  0.5 -3  0.56250000000000022 -3  0.625 -3  0.6875 -3  0.75 -3  0.8125 -3  0.875 -3  0.93749999999999989 -3  1 -3  1.0625000000000004 -3  1.125 -3  1.1875000000000007 -3  1.25 -3  1.3125 -3  1.375 -3  1.4374999999999998 -3  1.5 -3  1.5625000000000002 -3  1.625 -3  1.6875 -3  1.75 -3  1.8125 -3  1.875 -3  1.9375000000000009 -3  2 -3 
 0 3 0.125 2 0.25 2 0.375 2 0.5 2 0.625 2 0.75 2 0.875 2 1 2 1.125 2 1.25 2 1.375 2 1.5 2 1.625 2 1.75 2 1.875 2 2 3
7 0 0  2 33 17  0 0  0.0625 0  0.125 0  0.18750000000000006 0  0.25 0  0.31249999999999994 0  0.375 0  0.43750000000000006 0  0.5 0  0.56250000000000022 0  0.625 0  0.6875 0  0.75 0  0.8125 0  0.875 0  0.93749999999999989 0  1 0  1.0625000000000004 0  1.125 0  1.1875000000000007 0  1.25 0  1.3125 0  1.375 0  1.4374999999999998 0  1.5 0  1.5625000000000002 0  1.625 0  1.6875 0  1.75 0  1.8125 0  1.875 0  1.9375000000000009 0  2 0 
 0 3 0.125 2 0.25 2 0.375 2 0.5 2 0.625 2 0.75 2 0.875 2 1 2 1.125 2 1.25 2 1.375 2 1.5 2 1.625 2 1.75 2 1.875 2 2 3
7 0 0  2 33 17  0 -2.1684043449710089e-18  0 -0.093749999999999972  0 -0.1875  0 -0.28125  0 -0.375  0 -0.46875000000000006  0 -0.5625  0 -0.65625  0 -0.75  0 -0.84374999999999978  0 -0.9375  0 -1.0312500000000002  0 -1.125  0 -1.2187500000000004  0 -1.3125  0 -1.40625  0 -1.5  0 -1.5937500000000004  0 -1.6875  0 -1.7812500000000007  0 -1.875  0 -1.9687500000000004  0 -2.0625  0 -2.1562499999999996  0 -2.25  0 -2.3437499999999996  0 -2.4375  0 -2.5312500000000004  0 -2.625  0 -2.7187500000000009  0 -2.8125  0 -2.9062500000000004  0 -3 
 0 3 0.1875 2 0.375 2 0.5625 2 0.75 2 0.9375 2 1.125 2 1.3125 2 1.5 2 1.6875 2 1.875 2 2.0625 2 2.25 2 2.4375 2 2.625 2 2.8125 2 3 3
7 0 0  2 33 17  0 6.8846837952829532e-18  0 0.093749999999999972  0 0.1875  0 0.28125  0 0.375  0 0.46875000000000006  0 0.5625  0 0.65625  0 0.75  0 0.84374999999999978  0 0.9375  0 1.0312500000000002  0 1.125  0 1.2187500000000004  0 1.3125  0 1.40625  0 1.5  0 1.5937500000000004  0 1.6875  0 1.7812500000000007  0 1.875  0 1.9687500000000004  0 2.0625  0 2.1562499999999996  0 2.25  0 2.3437499999999996  0 2.4375  0 2.5312500000000004  0 2.625  0 2.7187500000000009  0 2.8125  0 2.9062500000000004  0 3 
 0 3 0.1875 2 0.375 2 0.5625 2 0.75 2 0.9375 2 1.125 2 1.3125 2 1.5 2 1.6875 2 1.875 2 2.0625 2 2.25 2 2.4375 2 2.625 2 2.8125 2 3 3
7 0 0  2 33 17  0 -2.1684043449710089e-18  0.0625 -2.1684043449710093e-18  0.125 -2.1684043449710089e-18  0.18750000000000006 0  0.25 0  0.31249999999999994 0  0.375 0  0.43750000000000006 0  0.5 0  0.56250000000000022 0  0.625 0  0.6875 0  0.75 0  0.8125 0  0.875 0  0.93749999999999989 0  1 0  1.0625000000000004 0  1.125 0  1.1875000000000007 0  1.25 0  1.3125 0  1.375 0  1.4374999999999998 0  1.5 0  1.5625000000000002 0  1.625 0  1.6875 0  1.75 0  1.8125 0  1.875 0  1.9375000000000009 0  2 0 
 0 3 0.125 2 0.25 2 0.375 2 0.5 2 0.625 2 0.75 2 0.875 2 1 2 1.125 2 1.25 2 1.375 2 1.5 2 1.625 2 1.75 2 1.875 2 2 3
7 0 0  2 33 17  0 4  0.0625 4.0000000000000009  0.125 4  0.18750000000000006 4.0000000000000009  0.25 4  0.31249999999999994 4.0000000000000009  0.375 4  0.43750000000000006 4.0000000000000009  0.5 4  0.56250000000000022 4.0000000000000009  0.625 4  0.6875 4.0000000000000009  0.75 4  0.8125 4.0000000000000009  0.875 4  0.93749999999999989 4.0000000000000009  1 4  1.0625000000000004 4.0000000000000009  1.125 4  1.1875000000000007 4.0000000000000009  1.25 4  1.3125 4.0000000000000009  1.375 4  1.4374999999999998 4.0000000000000009  1.5 4  1.5625000000000002 4.0000000000000009  1.625 4  1.6875 4.0000000000000009  1.75 4  1.8125 4.0000000000000009  1.875 4  1.9375000000000009 4.0000000000000009  2 4 
 0 3 0.125 2 0.25 2 0.375 2 0.5 2 0.625 2 0.75 2 0.875 2 1 2 1.125 2 1.25 2 1.375 2 1.5 2 1.625 2 1.75 2 1.875 2 2 3
7 0 0  2 33 17  0 -2.1684043449710089e-18  0 -0.093749999999999972  0 -0.1875  0 -0.28125  0 -0.375  0 -0.46875000000000006  0 -0.5625  0 -0.65625  0 -0.75  0 -0.84374999999999978  0 -0.9375  0 -1.0312500000000002  0 -1.125  0 -1.2187500000000004  0 -1.3125  0 -1.40625  0 -1.5  0 -1.5937500000000004  0 -1.6875  0 -1.7812500000000007  0 -1.875  0 -1.9687500000000004  0 -2.0625  0 -2.1562499999999996  0 -2.25  0 -2.3437499999999996  0 -2.4375  0 -2.5312500000000004  0 -2.625  0 -2.7187500000000009  0 -2.8125  0 -2.9062500000000004  0 -3 
 0 3 0.1875 2 0.375 2 0.5625 2 0.75 2 0.9375 2 1.125 2 1.3125 2 1.5 2 1.6875 2 1.875 2 2.0625 2 2.25 2 2.4375 2 2.625 2 2.8125 2 3 3
7 0 0  2 33 17  4 4.7162794503119443e-18  4.0000000000000009 0.093749999999999972  4 0.1875  4.0000000000000009 0.28125  4 0.375  4.0000000000000009 0.46875000000000006  4 0.5625  4.0000000000000009 0.65625  4 0.75  4.0000000000000009 0.84374999999999978  4 0.9375  4.0000000000000009 1.0312500000000002  4 1.125  4.0000000000000009 1.2187500000000004  4 1.3125  4.0000000000000009 1.40625  4 1.5  4.0000000000000009 1.5937500000000004  4 1.6875  4.0000000000000009 1.7812500000000007  4 1.875  4.0000000000000009 1.9687500000000004  4 2.0625  4.0000000000000009 2.1562499999999996  4 2.25  4.0000000000000009 2.3437499999999996  4 2.4375  4.0000000000000009 2.5312500000000004  4 2.625  4.0000000000000009 2.7187500000000009  4 2.8125  4.0000000000000009 2.9062500000000004  4 3 
 0 3 0.1875 2 0.375 2 0.5625 2 0.75 2 0.9375 2 1.125 2 1.3125 2 1.5 2 1.6875 2 1.875 2 2.0625 2 2.25 2 2.4375 2 2.625 2 2.8125 2 3 3
7 0 0  2 33 17  0 -3  0.0625 -3  0.125 -3  0.18750000000000006 -3  0.25 -3  0.31249999999999994 -3  0.375 -3  0.43750000000000006 -3  0.5 -3  0.56250000000000022 -3  0.625 -3  0.6875 -3  0.75 -3  0.8125 -3  0.875 -3  0.93749999999999989 -3  1 -3  1.0625000000000004 -3  1.125 -3  1.1875000000000007 -3  1.25 -3  1.3125 -3  1.375 -3  1.4374999999999998 -3  1.5 -3  1.5625000000000002 -3  1.625 -3  1.6875 -3  1.75 -3  1.8125 -3  1.875 -3  1.9375000000000009 -3  2 -3 
 0 3 0.125 2 0.25 2 0.375 2 0.5 2 0.625 2 0.75 2 0.875 2 1 2 1.125 2 1.25 2 1.375 2 1.5 2 1.625 2 1.75 2 1.875 2 2 3
7 0 0  2 33 17  0 4  0.0625 4.0000000000000009  0.125 4  0.18750000000000006 4.0000000000000009  0.25 4  0.31249999999999994 4.0000000000000009  0.375 4  0.43750000000000006 4.0000000000000009  0.5 4  0.56250000000000022 4.0000000000000009  0.625 4  0.6875 4.0000000000000009  0.75 4  0.8125 4.0000000000000009  0.875 4  0.93749999999999989 4.0000000000000009  1 4  1.0625000000000004 4.0000000000000009  1.125 4  1.1875000000000007 4.0000000000000009  1.25 4  1.3125 4.0000000000000009  1.375 4  1.4374999999999998 4.0000000000000009  1.5 4  1.5625000000000002 4.0000000000000009  1.625 4  1.6875 4.0000000000000009  1.75 4  1.8125 4.0000000000000009  1.875 4  1.9375000000000009 4.0000000000000009  2 4 
 0 3 0.125 2 0.25 2 0.375 2 0.5 2 0.625 2 0.75 2 0.875 2 1 2 1.125 2 1.25 2 1.375 2 1.5 2 1.625 2 1.75 2 1.875 2 2 3
7 0 0  2 33 17  2 0  2.0000000000000004 -0.093749999999999972  2 -0.1875  2.0000000000000004 -0.28125  2 -0.375  2.0000000000000004 -0.46875000000000006  2 -0.5625  2.0000000000000004 -0.65625  2 -0.75  2.0000000000000004 -0.84374999999999978  2 -0.9375  2.0000000000000004 -1.0312500000000002  2 -1.125  2.0000000000000004 -1.2187500000000004  2 -1.3125  2.0000000000000004 -1.40625  2 -1.5  2.0000000000000004 -1.5937500000000004  2 -1.6875  2.0000000000000004 -1.7812500000000007  2 -1.875  2.0000000000000004 -1.9687500000000004  2 -2.0625  2.0000000000000004 -2.1562499999999996  2 -2.25  2.0000000000000004 -2.3437499999999996  2 -2.4375  2.0000000000000004 -2.5312500000000004  2 -2.625  2.0000000000000004 -2.7187500000000009  2 -2.8125  2.0000000000000004 -2.9062500000000004  2 -3 
 0 3 0.1875 2 0.375 2 0.5625 2 0.75 2 0.9375 2 1.125 2 1.3125 2 1.5 2 1.6875 2 1.875 2 2.0625 2 2.25 2 2.4375 2 2.625 2 2.8125 2 3 3
7 0 0  2 33 17  4 4.7162794503119443e-18  4.0000000000000009 0.093749999999999972  4 0.1875  4.0000000000000009 0.28125  4 0.375  4.0000000000000009 0.46875000000000006  4 0.5625  4.0000000000000009 0.65625  4 0.75  4.0000000000000009 0.84374999999999978  4 0.9375  4.0000000000000009 1.0312500000000002  4 1.125  4.0000000000000009 1.2187500000000004  4 1.3125  4.0000000000000009 1.40625  4 1.5  4.0000000000000009 1.5937500000000004  4 1.6875  4.0000000000000009 1.7812500000000007  4 1.875  4.0000000000000009 1.9687500000000004  4 2.0625  4.0000000000000009 2.1562499999999996  4 2.25  4.0000000000000009 2.3437499999999996  4 2.4375  4.0000000000000009 2.5312500000000004  4 2.625  4.0000000000000009 2.7187500000000009  4 2.8125  4.0000000000000009 2.9062500000000004  4 3 
 0 3 0.1875 2 0.375 2 0.5625 2 0.75 2 0.9375 2 1.125 2 1.3125 2 1.5 2 1.6875 2 1.875 2 2.0625 2 2.25 2 2.4375 2 2.625 2 2.8125 2 3 3
7 0 0  2 33 17  0 0  0 0.125  0 0.25  0 0.37500000000000011  0 0.5  0 0.62499999999999989  0 0.75  0 0.87500000000000011  0 1  0 1.1250000000000004  0 1.25  0 1.375  0 1.5  0 1.625  0 1.75  0 1.8749999999999998  0 2  0 2.1250000000000009  0 2.25  0 2.3750000000000013  0 2.5  0 2.625  0 2.75  0 2.8749999999999996  0 3  0 3.1250000000000004  0 3.25  0 3.375  0 3.5  0 3.625  0 3.75  0 3.8750000000000018  0 4 
 0 3 0.25 2 0.5 2 0.75 2 1 2 1.25 2 1.5 2 1.75 2 2 2 2.25 2 2.5 2 2.75 2 3 2 3.25 2 3.5 2 3.75 2 4 3
7 0 0  2 33 17  0 6.8846837952829532e-18  0.125 -6.6821930954216914e-18  0.25 0  0.37500000000000011 4.7162794503119443e-18  0.5 4.7162794503119443e-18  0.62499999999999989 4.7162794503119443e-18  0.75 4.7162794503119443e-18  0.87500000000000011 4.7162794503119443e-18  1 4.7162794503119443e-18  1.1250000000000004 4.7162794503119443e-18  1.25 4.7162794503119443e-18  1.375 4.7162794503119443e-18  1.5 4.7162794503119443e-18  1.625 4.7162794503119443e-18  1.75 4.7162794503119443e-18  1.8749999999999998 4.7162794503119443e-18  2 4.7162794503119443e-18  2.1250000000000009 4.7162794503119443e-18  2.25 4.7162794503119443e-18  2.3750000000000013 4.7162794503119443e-18  2.5 4.7162794503119443e-18  2.625 4.7162794503119443e-18  2.75 4.7162794503119443e-18  2.8749999999999996 4.7162794503119443e-18  3 4.7162794503119443e-18  3.1250000000000004 4.7162794503119443e-18  3.25 4.7162794503119443e-18  3.375 4.7162794503119443e-18  3.5 4.7162794503119443e-18  3.625 4.7162794503119443e-18  3.75 4.7162794503119443e-18  3.8750000000000018 4.7162794503119443e-18  4 4.7162794503119443e-18 
 0 3 0.25 2 0.5 2 0.75 2 1 2 1.25 2 1.5 2 1.75 2 2 2 2.25 2 2.5 2 2.75 2 3 2 3.25 2 3.5 2 3.75 2 4 3
7 0 0  2 33 17  2 0  2.0000000000000004 0.125  2 0.25  2.0000000000000004 0.37500000000000011  2 0.5  2.0000000000000004 0.62499999999999989  2 0.75  2.0000000000000004 0.87500000000000011  2 1  2.0000000000000004 1.1250000000000004  2 1.25  2.0000000000000004 1.375  2 1.5  2.0000000000000004 1.625  2 1.75  2.0000000000000004 1.8749999999999998  2 2  2.0000000000000004 2.1250000000000009  2 2.25  2.0000000000000004 2.3750000000000013  2 2.5  2.0000000000000004 2.625  2 2.75  2.0000000000000004 2.8749999999999996  2 3  2.0000000000000004 3.1250000000000004  2 3.25  2.0000000000000004 3.375  2 3.5  2.0000000000000004 3.625  2 3.75  2.0000000000000004 3.8750000000000018  2 4 
 0 3 0.25 2 0.5 2 0.75 2 1 2 1.25 2 1.5 2 1.75 2 2 2 2.25 2 2.5 2 2.75 2 3 2 3.25 2 3.5 2 3.75 2 4 3
7 0 0  2 33 17  0 6.8846837952829532e-18  0.125 -6.6821930954216914e-18  0.25 0  0.37500000000000011 4.7162794503119443e-18  0.5 4.7162794503119443e-18  0.62499999999999989 4.7162794503119443e-18  0.75 4.7162794503119443e-18  0.87500000000000011 4.7162794503119443e-18  1 4.7162794503119443e-18  1.1250000000000004 4.7162794503119443e-18  1.25 4.7162794503119443e-18  1.375 4.7162794503119443e-18  1.5 4.7162794503119443e-18  1.625 4.7162794503119443e-18  1.75 4.7162794503119443e-18  1.8749999999999998 4.7162794503119443e-18  2 4.7162794503119443e-18  2.1250000000000009 4.7162794503119443e-18  2.25 4.7162794503119443e-18  2.3750000000000013 4.7162794503119443e-18  2.5 4.7162794503119443e-18  2.625 4.7162794503119443e-18  2.75 4.7162794503119443e-18  2.8749999999999996 4.7162794503119443e-18  3 4.7162794503119443e-18  3.1250000000000004 4.7162794503119443e-18  3.25 4.7162794503119443e-18  3.375 4.7162794503119443e-18  3.5 4.7162794503119443e-18  3.625 4.7162794503119443e-18  3.75 4.7162794503119443e-18  3.8750000000000018 4.7162794503119443e-18  4 4.7162794503119443e-18 
 0 3 0.25 2 0.5 2 0.75 2 1 2 1.25 2 1.5 2 1.75 2 2 2 2.25 2 2.5 2 2.75 2 3 2 3.25 2 3.5 2 3.75 2 4 3
7 0 0  2 33 17  0 0  0 0.125  0 0.25  0 0.37500000000000011  0 0.5  0 0.62499999999999989  0 0.75  0 0.87500000000000011  0 1  0 1.1250000000000004  0 1.25  0 1.375  0 1.5  0 1.625  0 1.75  0 1.8749999999999998  0 2  0 2.1250000000000009  0 2.25  0 2.3750000000000013  0 2.5  0 2.625  0 2.75  0 2.8749999999999996  0 3  0 3.1250000000000004  0 3.25  0 3.375  0 3.5  0 3.625  0 3.75  0 3.8750000000000018  0 4 
 0 3 0.25 2 0.5 2 0.75 2 1 2 1.25 2 1.5 2 1.75 2 2 2 2.25 2 2.5 2 2.75 2 3 2 3.25 2 3.5 2 3.75 2 4 3
7 0 0  2 33 17  0 3  0.125 3  0.25 3  0.37500000000000011 3  0.5 3  0.62499999999999989 3  0.75 3  0.87500000000000011 3  1 3  1.1250000000000004 3  1.25 3  1.375 3  1.5 3  1.625 3  1.75 3  1.8749999999999998 3  2 3  2.1250000000000009 3  2.25 3  2.3750000000000013 3  2.5 3  2.625 3  2.75 3  2.8749999999999996 3  3 3  3.1250000000000004 3  3.25 3  3.375 3  3.5 3  3.625 3  3.75 3  3.8750000000000018 3  4 3 
 0 3 0.25 2 0.5 2 0.75 2 1 2 1.25 2 1.5 2 1.75 2 2 2 2.25 2 2.5 2 2.75 2 3 2 3.25 2 3.5 2 3.75 2 4 3
7 0 0  2 33 17  2 0  2.0000000000000004 0.125  2 0.25  2.0000000000000004 0.37500000000000011  2 0.5  2.0000000000000004 0.62499999999999989  2 0.75  2.0000000000000004 0.87500000000000011  2 1  2.0000000000000004 1.1250000000000004  2 1.25  2.0000000000000004 1.375  2 1.5  2.0000000000000004 1.625  2 1.75  2.0000000000000004 1.8749999999999998  2 2  2.0000000000000004 2.1250000000000009  2 2.25  2.0000000000000004 2.3750000000000013  2 2.5  2.0000000000000004 2.625  2 2.75  2.0000000000000004 2.8749999999999996  2 3  2.0000000000000004 3.1250000000000004  2 3.25  2.0000000000000004 3.375  2 3.5  2.0000000000000004 3.625  2 3.75  2.0000000000000004 3.8750000000000018  2 4 
 0 3 0.25 2 0.5 2 0.75 2 1 2 1.25 2 1.5 2 1.75 2 2 2 2.25 2 2.5 2 2.75 2 3 2 3.25 2 3.5 2 3.75 2 4 3
7 0 0  2 33 17  0 3  0.125 3  0.25 3  0.37500000000000011 3  0.5 3  0.62499999999999989 3  0.75 3  0.87500000000000011 3  1 3  1.1250000000000004 3  1.25 3  1.375 3  1.5 3  1.625 3  1.75 3  1.8749999999999998 3  2 3  2.1250000000000009 3  2.25 3  2.3750000000000013 3  2.5 3  2.625 3  2.75 3  2.8749999999999996 3  3 3  3.1250000000000004 3  3.25 3  3.375 3  3.5 3  3.625 3  3.75 3  3.8750000000000018 3  4 3 
 0 3 0.25 2 0.5 2 0.75 2 1 2 1.25 2 1.5 2 1.75 2 2 2 2.25 2 2.5 2 2.75 2 3 2 3.25 2 3.5 2 3.75 2 4 3
Curves 12
7 0 0  1 17 17  0 0 0  0 0 0.125  0 0 0.25  0 0 0.375  0 0 0.5  0 0 0.625  0 0 0.75  0 0 0.875  0 0 1  0 0 1.125  0 0 1.25  0 0 1.375  0 0 1.5  0 0 1.625  0 0 1.75  0 0 1.875  0 0 2 
 0 2 0.125 1 0.25 1 0.375 1 0.5 1 0.625 1 0.75 1 0.875 1 1 1 1.125 1 1.25 1 1.375 1 1.5 1 1.625 1 1.75 1 1.875 1 2 2
7 0 0  1 17 17  0 0 2  0 0.1875 2  0 0.375 2  0 0.5625 2  0 0.75 2  0 0.9375 2  0 1.125 2  0 1.3125 2  0 1.5 2  0 1.6875 2  0 1.875 2  0 2.0625 2  0 2.25 2  0 2.4375 2  0 2.625 2  0 2.8125 2  0 3 2 
 0 2 0.1875 1 0.375 1 0.5625 1 0.75 1 0.9375 1 1.125 1 1.3125 1 1.5 1 1.6875 1 1.875 1 2.0625 1 2.25 1 2.4375 1 2.625 1 2.8125 1 3 2
7 0 0  1 17 17  0 3 0  0 3 0.125  0 3 0.25  0 3 0.375  0 3 0.5  0 3 0.625  0 3 0.75  0 3 0.875  0 3 1  0 3 1.125  0 3 1.25  0 3 1.375  0 3 1.5  0 3 1.625  0 3 1.75  0 3 1.875  0 3 2 
 0 2 0.125 1 0.25 1 0.375 1 0.5 1 0.625 1 0.75 1 0.875 1 1 1 1.125 1 1.25 1 1.375 1 1.5 1 1.625 1 1.75 1 1.875 1 2 2
7 0 0  1 17 17  0 0 0  0 0.1875 0  0 0.375 0  0 0.5625 0  0 0.75 0  0 0.9375 0  0 1.125 0  0 1.3125 0  0 1.5 0  0 1.6875 0  0 1.875 0  0 2.0625 0  0 2.25 0  0 2.4375 0  0 2.625 0  0 2.8125 0  0 3 0 
 0 2 0.1875 1 0.375 1 0.5625 1 0.75 1 0.9375 1 1.125 1 1.3125 1 1.5 1 1.6875 1 1.875 1 2.0625 1 2.25 1 2.4375 1 2.625 1 2.8125 1 3 2
7 0 0  1 17 17  4 0 0  4 0 0.125  4 0 0.25  4 0 0.375  4 0 0.5  4 0 0.625  4 0 0.75  4 0 0.875  4 0 1  4 0 1.125  4 0 1.25  4 0 1.375  4 0 1.5  4 0 1.625  4 0 1.75  4 0 1.875  4 0 2 
 0 2 0.125 1 0.25 1 0.375 1 0.5 1 0.625 1 0.75 1 0.875 1 1 1 1.125 1 1.25 1 1.375 1 1.5 1 1.625 1 1.75 1 1.875 1 2 2
7 0 0  1 17 17  4 0 0  4 0.1875 0  4 0.375 0  4 0.5625 0  4 0.75 0  4 0.9375 0  4 1.125 0  4 1.3125 0  4 1.5 0  4 1.6875 0  4 1.875 0  4 2.0625 0  4 2.25 0  4 2.4375 0  4 2.625 0  4 2.8125 0  4 3 0 
 0 2 0.1875 1 0.375 1 0.5625 1 0.75 1 0.9375 1 1.125 1 1.3125 1 1.5 1 1.6875 1 1.875 1 2.0625 1 2.25 1 2.4375 1 2.625 1 2.8125 1 3 2
7 0 0  1 17 17  4 3 0  4 3 0.125  4 3 0.25  4 3 0.375  4 3 0.5  4 3 0.625  4 3 0.75  4 3 0.875  4 3 1  4 3 1.125  4 3 1.25  4 3 1.375  4 3 1.5  4 3 1.625  4 3 1.75  4 3 1.875  4 3 2 
 0 2 0.125 1 0.25 1 0.375 1 0.5 1 0.625 1 0.75 1 0.875 1 1 1 1.125 1 1.25 1 1.375 1 1.5 1 1.625 1 1.75 1 1.875 1 2 2
7 0 0  1 17 17  4 0 2  4 0.1875 2  4 0.375 2  4 0.5625 2  4 0.75 2  4 0.9375 2  4 1.125 2  4 1.3125 2  4 1.5 2  4 1.6875 2  4 1.875 2  4 2.0625 2  4 2.25 2  4 2.4375 2  4 2.625 2  4 2.8125 2  4 3 2 
 0 2 0.1875 1 0.375 1 0.5625 1 0.75 1 0.9375 1 1.125 1 1.3125 1 1.5 1 1.6875 1 1.875 1 2.0625 1 2.25 1 2.4375 1 2.625 1 2.8125 1 3 2
7 0 0  1 17 17  0 0 0  0.25 0 0  0.5 0 0  0.75 0 0  1 0 0  1.25 0 0  1.5 0 0  1.75 0 0  2 0 0  2.25 0 0  2.5 0 0  2.75 0 0  3 0 0  3.25 0 0  3.5 0 0  3.75 0 0  4 0 0 
 0 2 0.25 1 0.5 1 0.75 1 1 1 1.25 1 1.5 1 1.75 1 2 1 2.25 1 2.5 1 2.75 1 3 1 3.25 1 3.5 1 3.75 1 4 2
7 0 0  1 17 17  0 0 2  0.25 0 2  0.5 0 2  0.75 0 2  1 0 2  1.25 0 2  1.5 0 2  1.75 0 2  2 0 2  2.25 0 2  2.5 0 2  2.75 0 2  3 0 2  3.25 0 2  3.5 0 2  3.75 0 2  4 0 2 
 0 2 0.25 1 0.5 1 0.75 1 1 1 1.25 1 1.5 1 1.75 1 2 1 2.25 1 2.5 1 2.75 1 3 1 3.25 1 3.5 1 3.75 1 4 2
7 0 0  1 17 17  0 3 0  0.25 3 0  0.5 3 0  0.75 3 0  1 3 0  1.25 3 0  1.5 3 0  1.75 3 0  2 3 0  2.25 3 0  2.5 3 0  2.75 3 0  3 3 0  3.25 3 0  3.5 3 0  3.75 3 0  4 3 0 
 0 2 0.25 1 0.5 1 0.75 1 1 1 1.25 1 1.5 1 1.75 1 2 1 2.25 1 2.5 1 2.75 1 3 1 3.25 1 3.5 1 3.75 1 4 2
7 0 0  1 17 17  0 3 2  0.25 3 2  0.5 3 2  0.75 3 2  1 3 2  1.25 3 2  1.5 3 2  1.75 3 2  2 3 2  2.25 3 2  2.5 3 2  2.75 3 2  3 3 2  3.25 3 2  3.5 3 2  3.75 3 2  4 3 2 
 0 2 0.25 1 0.5 1 0.75 1 1 1 1.25 1 1.5 1 1.75 1 2 1 2.25 1 2.5 1 2.75 1 3 1 3.25 1 3.5 1 3.75 1 4 2
Polygon3D 0
PolygonOnTriangulations 0
Surfaces 6
9 0 0 0 0 1 1 17 17 17 17 0 3 0  0 2.8125 0  0 2.625 0  0 2.4375 0  0 2.25 0  0 2.0625 0  0 1.875 0  0 1.6875 0  0 1.5 0  0 1.3125 0  0 1.125 0  0 0.9375 0  0 0.75 0  0 0.5625 0  0 0.375 0  0 0.1875 0  0 0 0  
0 3 0.125  0 2.8125 0.125  0 2.625 0.125  0 2.4375 0.125  0 2.25 0.125  0 2.0625 0.125  0 1.875 0.125  0 1.6875 0.125  0 1.5 0.125  0 1.3125 0.125  0 1.125 0.125  0 0.9375 0.125  0 0.75 0.125  0 0.5625 0.125  0 0.375 0.125  0 0.1875 0.125  0 0 0.125  
0 3 0.25  0 2.8125 0.25  0 2.625 0.25  0 2.4375 0.25  0 2.25 0.25  0 2.0625 0.25  0 1.875 0.25  0 1.6875 0.25  0 1.5 0.25  0 1.3125 0.25  0 1.125 0.25  0 0.9375 0.25  0 0.75 0.25  0 0.5625 0.25  0 0.375 0.25  0 0.1875 0.25  0 0 0.25  
0 3 0.375  0 2.8125 0.375  0 2.625 0.375  0 2.4375 0.375  0 2.25 0.375  0 2.0625 0.375  0 1.875 0.375  0 1.6875 0.375  0 1.5 0.375  0 1.3125 0.375  0 1.125 0.375  0 0.9375 0.375  0 0.75 0.375  0 0.5625 0.375  0 0.375 0.375  0 0.1875 0.375  0 0 0.375  
0 3 0.5  0 2.8125 0.5  0 2.625 0.5  0 2.4375 0.5  0 2.25 0.5  0 2.0625 0.5  0 1.875 0.5  0 1.6875 0.5  0 1.5 0.5  0 1.3125 0.5  0 1.125 0.5  0 0.9375 0.5  0 0.75 0.5  0 0.5625 0.5  0 0.375 0.5  0 0.1875 0.5  0 0 0.5  
0 3 0.625  0 2.8125 0.625  0 2.625 0.625  0 2.4375 0.625  0 2.25 0.625  0 2.0625 0.625  0 1.875 0.625  0 1.6875 0.625  0 1.5 0.625  0 1.3125 0.625  0 1.125 0.625  0 0.9375 0.625  0 0.75 0.625  0 0.5625 0.625  0 0.375 0.625  0 0.1875 0.625  0 0 0.625  
0 3 0.75  0 2.8125 0.75  0 2.625 0.75  0 2.4375 0.75  0 2.25 0.75  0 2.0625 0.75  0 1.875 0.75  0 1.6875 0.75  0 1.5 0.75  0 1.3125 0.75  0 1.125 0.75  0 0.9375 0.75  0 0.75 0.75  0 0.5625 0.75  0 0.375 0.75  0 0.1875 0.75  0 0 0.75  
0 3 0.875  0 2.8125 0.875  0 2.625 0.875  0 2.4375 0.875  0 2.25 0.875  0 2.0625 0.875  0 1.875 0.875  0 1.6875 0.875  0 1.5 0.875  0 1.3125 0.875  0 1.125 0.875  0 0.9375 0.875  0 0.75 0.875  0 0.5625 0.875  0 0.375 0.875  0 0.1875 0.875  0 0 0.875  
0 3 1  0 2.8125 1  0 2.625 1  0 2.4375 1  0 2.25 1  0 2.0625 1  0 1.875 1  0 1.6875 1  0 1.5 1  0 1.3125 1  0 1.125 1  0 0.9375 1  0 0.75 1  0 0.5625 1  0 0.375 1  0 0.1875 1  0 0 1  
0 3 1.125  0 2.8125 1.125  0 2.625 1.125  0 2.4375 1.125  0 2.25 1.125  0 2.0625 1.125  0 1.875 1.125  0 1.6875 1.125  0 1.5 1.125  0 1.3125 1.125  0 1.125 1.125  0 0.9375 1.125  0 0.75 1.125  0 0.5625 1.125  0 0.375 1.125  0 0.1875 1.125  0 0 1.125  
0 3 1.25  0 2.8125 1.25  0 2.625 1.25  0 2.4375 1.25  0 2.25 1.25  0 2.0625 1.25  0 1.875 1.25  0 1.6875 1.25  0 1.5 1.25  0 1.3125 1.25  0 1.125 1.25  0 0.9375 1.25  0 0.75 1.25  0 0.5625 1.25  0 0.375 1.25  0 0.1875 1.25  0 0 1.25  
0 3 1.375  0 2.8125 1.375  0 2.625 1.375  0 2.4375 1.375  0 2.25 1.375  0 2.0625 1.375  0 1.875 1.375  0 1.6875 1.375  0 1.5 1.375  0 1.3125 1.375  0 1.125 1.375  0 0.9375 1.375  0 0.75 1.375  0 0.5625 1.375  0 0.375 1.375  0 0.1875 1.375  0 0 1.375  
0 3 1.5  0 2.8125 1.5  0 2.625 1.5  0 2.4375 1.5  0 2.25 1.5  0 2.0625 1.5  0 1.875 1.5  0 1.6875 1.5  0 1.5 1.5  0 1.3125 1.5  0 1.125 1.5  0 0.9375 1.5  0 0.75 1.5  0 0.5625 1.5  0 0.375 1.5  0 0.1875 1.5  0 0 1.5  
0 3 1.625  0 2.8125 1.625  0 2.625 1.625  0 2.4375 1.625  0 2.25 1.625  0 2.0625 1.625  0 1.875 1.625  0 1.6875 1.625  0 1.5 1.625  0 1.3125 1.625  0 1.125 1.625  0 0.9375 1.625  0 0.75 1.625  0 0.5625 1.625  0 0.375 1.625  0 0.1875 1.625  0 0 1.625  
0 3 1.75  0 2.8125 1.75  0 2.625 1.75  0 2.4375 1.75  0 2.25 1.75  0 2.0625 1.75  0 1.875 1.75  0 1.6875 1.75  0 1.5 1.75  0 1.3125 1.75  0 1.125 1.75  0 0.9375 1.75  0 0.75 1.75  0 0.5625 1.75  0 0.375 1.75  0 0.1875 1.75  0 0 1.75  
0 3 1.875  0 2.8125 1.875  0 2.625 1.875  0 2.4375 1.875  0 2.25 1.875  0 2.0625 1.875  0 1.875 1.875  0 1.6875 1.875  0 1.5 1.875  0 1.3125 1.875  0 1.125 1.875  0 0.9375 1.875  0 0.75 1.875  0 0.5625 1.875  0 0.375 1.875  0 0.1875 1.875  0 0 1.875  
0 3 2  0 2.8125 2  0 2.625 2  0 2.4375 2  0 2.25 2  0 2.0625 2  0 1.875 2  0 1.6875 2  0 1.5 2  0 1.3125 2  0 1.125 2  0 0.9375 2  0 0.75 2  0 0.5625 2  0 0.375 2  0 0.1875 2  0 0 2  

0 2
0.125 1
0.25 1
0.375 1
0.5 1
0.625 1
0.75 1
0.875 1
1 1
1.125 1
1.25 1
1.375 1
1.5 1
1.625 1
1.75 1
1.875 1
2 2

-3 2
-2.8125 1
-2.625 1
-2.4375 1
-2.25 1
-2.0625 1
-1.875 1
-1.6875 1
-1.5 1
-1.3125 1
-1.125 1
-0.9375 1
-0.75 1
-0.5625 1
-0.375 1
-0.1875 1
0 2

9 0 0 0 0 1 1 17 17 17 17 0 0 0  0.25 0 0  0.5 0 0  0.75 0 0  1 0 0  1.25 0 0  1.5 0 0  1.75 0 0  2 0 0  2.25 0 0  2.5 0 0  2.75 0 0  3 0 0  3.25 0 0  3.5 0 0  3.75 0 0  4 0 0  
0 0 0.125  0.25 0 0.125  0.5 0 0.125  0.75 0 0.125  1 0 0.125  1.25 0 0.125  1.5 0 0.125  1.75 0 0.125  2 0 0.125  2.25 0 0.125  2.5 0 0.125  2.75 0 0.125  3 0 0.125  3.25 0 0.125  3.5 0 0.125  3.75 0 0.125  4 0 0.125  
0 0 0.25  0.25 0 0.25  0.5 0 0.25  0.75 0 0.25  1 0 0.25  1.25 0 0.25  1.5 0 0.25  1.75 0 0.25  2 0 0.25  2.25 0 0.25  2.5 0 0.25  2.75 0 0.25  3 0 0.25  3.25 0 0.25  3.5 0 0.25  3.75 0 0.25  4 0 0.25  
0 0 0.375  0.25 0 0.375  0.5 0 0.375  0.75 0 0.375  1 0 0.375  1.25 0 0.375  1.5 0 0.375  1.75 0 0.375  2 0 0.375  2.25 0 0.375  2.5 0 0.375  2.75 0 0.375  3 0 0.375  3.25 0 0.375  3.5 0 0.375  3.75 0 0.375  4 0 0.375  
0 0 0.5  0.25 0 0.5  0.5 0 0.5  0.75 0 0.5  1 0 0.5  1.25 0 0.5  1.5 0 0.5  1.75 0 0.5  2 0 0.5  2.25 0 0.5  2.5 0 0.5  2.75 0 0.5  3 0 0.5  3.25 0 0.5  3.5 0 0.5  3.75 0 0.5  4 0 0.5  
0 0 0.625  0.25 0 0.625  0.5 0 0.625  0.75 0 0.625  1 0 0.625  1.25 0 0.625  1.5 0 0.625  1.75 0 0.625  2 0 0.625  2.25 0 0.625  2.5 0 0.625  2.75 0 0.625  3 0 0.625  3.25 0 0.625  3.5 0 0.625  3.75 0 0.625  4 0 0.625  
0 0 0.75  0.25 0 0.75  0.5 0 0.75  0.75 0 0.75  1 0 0.75  1.25 0 0.75  1.5 0 0.75  1.75 0 0.75  2 0 0.75  2.25 0 0.75  2.5 0 0.75  2.75 0 0.75  3 0 0.75  3.25 0 0.75  3.5 0 0.75  3.75 0 0.75  4 0 0.75  
0 0 0.875  0.25 0 0.875  0.5 0 0.875  0.75 0 0.875  1 0 0.875  1.25 0 0.875  1.5 0 0.875  1.75 0 0.875  2 0 0.875  2.25 0 0.875  2.5 0 0.875  2.75 0 0.875  3 0 0.875  3.25 0 0.875  3.5 0 0.875  3.75 0 0.875  4 0 0.875  
0 0 1  0.25 0 1  0.5 0 1  0.75 0 1  1 0 1  1.25 0 1  1.5 0 1  1.75 0 1  2 0 1  2.25 0 1  2.5 0 1  2.75 0 1  3 0 1  3.25 0 1  3.5 0 1  3.75 0 1  4 0 1  
0 0 1.125  0.25 0 1.125  0.5 0 1.125  0.75 0 1.125  1 0 1.125  1.25 0 1.125  1.5 0 1.125  1.75 0 1.125  2 0 1.125  2.25 0 1.125  2.5 0 1.125  2.75 0 1.125  3 0 1.125  3.25 0 1.125  3.5 0 1.125  3.75 0 1.125  4 0 1.125  
0 0 1.25  0.25 0 1.25  0.5 0 1.25  0.75 0 1.25  1 0 1.25  1.25 0 1.25  1.5 0 1.25  1.75 0 1.25  2 0 1.25  2.25 0 1.25  2.5 0 1.25  2.75 0 1.25  3 0 1.25  3.25 0 1.25  3.5 0 1.25  3.75 0 1.25  4 0 1.25  
0 0 1.375  0.25 0 1.375  0.5 0 1.375  0.75 0 1.375  1 0 1.375  1.25 0 1.375  1.5 0 1.375  1.75 0 1.375  2 0 1.375  2.25 0 1.375  2.5 0 1.375  2.75 0 1.375  3 0 1.375  3.25 0 1.375  3.5 0 1.375  3.75 0 1.375  4 0 1.375  
0 0 1.5  0.25 0 1.5  0.5 0 1.5  0.75 0 1.5  1 0 1.5  1.25 0 1.5  1.5 0 1.5  1.75 0 1.5  2 0 1.5  2.25 0 1.5  2.5 0 1.5  2.75 0 1.5  3 0 1.5  3.25 0 1.5  3.5 0 1.5  3.75 0 1.5  4 0 1.5  
0 0 1.625  0.25 0 1.625  0.5 0 1.625  0.75 0 1.625  1 0 1.625  1.25 0 1.625  1.5 0 1.625  1.75 0 1.625  2 0 1.625  2.25 0 1.625  2.5 0 1.625  2.75 0 1.625  3 0 1.625  3.25 0 1.625  3.5 0 1.625  3.75 0 1.625  4 0 1.625  
0 0 1.75  0.25 0 1.75  0.5 0 1.75  0.75 0 1.75  1 0 1.75  1.25 0 1.75  1.5 0 1.75  1.75 0 1.75  2 0 1.75  2.25 0 1.75  2.5 0 1.75  2.75 0 1.75  3 0 1.75  3.25 0 1.75  3.5 0 1.75  3.75 0 1.75  4 0 1.75  
0 0 1.875  0.25 0 1.875  0.5 0 1.875  0.75 0 1.875  1 0 1.875  1.25 0 1.875  1.5 0 1.875  1.75 0 1.875  2 0 1.875  2.25 0 1.875  2.5 0 1.875  2.75 0 1.875  3 0 1.875  3.25 0 1.875  3.5 0 1.875  3.75 0 1.875  4 0 1.875  
0 0 2  0.25 0 2  0.5 0 2  0.75 0 2  1 0 2  1.25 0 2  1.5 0 2  1.75 0 2  2 0 2  2.25 0 2  2.5 0 2  2.75 0 2  3 0 2  3.25 0 2  3.5 0 2  3.75 0 2  4 0 2  

0 2
0.125 1
0.25 1
0.375 1
0.5 1
0.625 1
0.75 1
0.875 1
1 1
1.125 1
1.25 1
1.375 1
1.5 1
1.625 1
1.75 1
1.875 1
2 2

0 2
0.25 1
0.5 1
0.75 1
1 1
1.25 1
1.5 1
1.75 1
2 1
2.25 1
2.5 1
2.75 1
3 1
3.25 1
3.5 1
3.75 1
4 2

9 0 0 0 0 1 1 17 17 17 17 0 0 2  0 0.1875 2  0 0.375 2  0 0.5625 2  0 0.75 2  0 0.9375 2  0 1.125 2  0 1.3125 2  0 1.5 2  0 1.6875 2  0 1.875 2  0 2.0625 2  0 2.25 2  0 2.4375 2  0 2.625 2  0 2.8125 2  0 3 2  
0.25 0 2  0.25 0.1875 2  0.25 0.375 2  0.25 0.5625 2  0.25 0.75 2  0.25 0.9375 2  0.25 1.125 2  0.25 1.3125 2  0.25 1.5 2  0.25 1.6875 2  0.25 1.875 2  0.25 2.0625 2  0.25 2.25 2  0.25 2.4375 2  0.25 2.625 2  0.25 2.8125 2  0.25 3 2  
0.5 0 2  0.5 0.1875 2  0.5 0.375 2  0.5 0.5625 2  0.5 0.75 2  0.5 0.9375 2  0.5 1.125 2  0.5 1.3125 2  0.5 1.5 2  0.5 1.6875 2  0.5 1.875 2  0.5 2.0625 2  0.5 2.25 2  0.5 2.4375 2  0.5 2.625 2  0.5 2.8125 2  0.5 3 2  
0.75 0 2  0.75 0.1875 2  0.75 0.375 2  0.75 0.5625 2  0.75 0.75 2  0.75 0.9375 2  0.75 1.125 2  0.75 1.3125 2  0.75 1.5 2  0.75 1.6875 2  0.75 1.875 2  0.75 2.0625 2  0.75 2.25 2  0.75 2.4375 2  0.75 2.625 2  0.75 2.8125 2  0.75 3 2  
1 0 2  1 0.1875 2  1 0.375 2  1 0.5625 2  1 0.75 2  1 0.9375 2  1 1.125 2  1 1.3125 2  1 1.5 2  1 1.6875 2  1 1.875 2  1 2.0625 2  1 2.25 2  1 2.4375 2  1 2.625 2  1 2.8125 2  1 3 2  
1.25 0 2  1.25 0.1875 2  1.25 0.375 2  1.25 0.5625 2  1.25 0.75 2  1.25 0.9375 2  1.25 1.125 2  1.25 1.3125 2  1.25 1.5 2  1.25 1.6875 2  1.25 1.875 2  1.25 2.0625 2  1.25 2.25 2  1.25 2.4375 2  1.25 2.625 2  1.25 2.8125 2  1.25 3 2  
1.5 0 2  1.5 0.1875 2  1.5 0.375 2  1.5 0.5625 2  1.5 0.75 2  1.5 0.9375 2  1.5 1.125 2  1.5 1.3125 2  1.5 1.5 2  1.5 1.6875 2  1.5 1.875 2  1.5 2.0625 2  1.5 2.25 2  1.5 2.4375 2  1.5 2.625 2  1.5 2.8125 2  1.5 3 2  
1.75 0 2  1.75 0.1875 2  1.75 0.375 2  1.75 0.5625 2  1.75 0.75 2  1.75 0.9375 2  1.75 1.125 2  1.75 1.3125 2  1.75 1.5 2  1.75 1.6875 2  1.75 1.875 2  1.75 2.0625 2  1.75 2.25 2  1.75 2.4375 2  1.75 2.625 2  1.75 2.8125 2  1.75 3 2  
2 0 2  2 0.1875 2  2 0.375 2  2 0.5625 2  2 0.75 2  2 0.9375 2  2 1.125 2  2 1.3125 2  2 1.5 2  2 1.6875 2  2 1.875 2  2 2.0625 2  2 2.25 2  2 2.4375 2  2 2.625 2  2 2.8125 2  2 3 2  
2.25 0 2  2.25 0.1875 2  2.25 0.375 2  2.25 0.5625 2  2.25 0.75 2  2.25 0.9375 2  2.25 1.125 2  2.25 1.3125 2  2.25 1.5 2  2.25 1.6875 2  2.25 1.875 2  2.25 2.0625 2  2.25 2.25 2  2.25 2.4375 2  2.25 2.625 2  2.25 2.8125 2  2.25 3 2  
2.5 0 2  2.5 0.1875 2  2.5 0.375 2  2.5 0.5625 2  2.5 0.75 2  2.5 0.9375 2  2.5 1.125 2  2.5 1.3125 2  2.5 1.5 2  2.5 1.6875 2  2.5 1.875 2  2.5 2.0625 2  2.5 2.25 2  2.5 2.4375 2  2.5 2.625 2  2.5 2.8125 2  2.5 3 2  
2.75 0 2  2.75 0.1875 2  2.75 0.375 2  2.75 0.5625 2  2.75 0.75 2  2.75 0.9375 2  2.75 1.125 2  2.75 1.3125 2  2.75 1.5 2  2.75 1.6875 2  2.75 1.875 2  2.75 2.0625 2  2.75 2.25 2  2.75 2.4375 2  2.75 2.625 2  2.75 2.8125 2  2.75 3 2  
3 0 2  3 0.1875 2  3 0.375 2  3 0.5625 2  3 0.75 2  3 0.9375 2  3 1.125 2  3 1.3125 2  3 1.5 2  3 1.6875 2  3 1.875 2  3 2.0625 2  3 2.25 2  3 2.4375 2  3 2.625 2  3 2.8125 2  3 3 2  
3.25 0 2  3.25 0.1875 2  3.25 0.375 2  3.25 0.5625 2  3.25 0.75 2  3.25 0.9375 2  3.25 1.125 2  3.25 1.3125 2  3.25 1.5 2  3.25 1.6875 2  3.25 1.875 2  3.25 2.0625 2  3.25 2.25 2  3.25 2.4375 2  3.25 2.625 2  3.25 2.8125 2  3.25 3 2  
3.5 0 2  3.5 0.1875 2  3.5 0.375 2  3.5 0.5625 2  3.5 0.75 2  3.5 0.9375 2  3.5 1.125 2  3.5 1.3125 2  3.5 1.5 2  3.5 1.6875 2  3.5 1.875 2  3.5 2.0625 2  3.5 2.25 2  3.5 2.4375 2  3.5 2.625 2  3.5 2.8125 2  3.5 3 2  
3.75 0 2  3.75 0.1875 2  3.75 0.375 2  3.75 0.5625 2  3.75 0.75 2  3.75 0.9375 2  3.75 1.125 2  3.75 1.3125 2  3.75 1.5 2  3.75 1.6875 2  3.75 1.875 2  3.75 2.0625 2  3.75 2.25 2  3.75 2.4375 2  3.75 2.625 2  3.75 2.8125 2  3.75 3 2  
4 0 2  4 0.1875 2  4 0.375 2  4 0.5625 2  4 0.75 2  4 0.9375 2  4 1.125 2  4 1.3125 2  4 1.5 2  4 1.6875 2  4 1.875 2  4 2.0625 2  4 2.25 2  4 2.4375 2  4 2.625 2  4 2.8125 2  4 3 2  

0 2
0.25 1
0.5 1
0.75 1
1 1
1.25 1
1.5 1
1.75 1
2 1
2.25 1
2.5 1
2.75 1
3 1
3.25 1
3.5 1
3.75 1
4 2

0 2
0.1875 1
0.375 1
0.5625 1
0.75 1
0.9375 1
1.125 1
1.3125 1
1.5 1
1.6875 1
1.875 1
2.0625 1
2.25 1
2.4375 1
2.625 1
2.8125 1
3 2

9 0 0 0 0 1 1 17 17 17 17 0 3 0  0.25 3 0  0.5 3 0  0.75 3 0  1 3 0  1.25 3 0  1.5 3 0  1.75 3 0  2 3 0  2.25 3 0  2.5 3 0  2.75 3 0  3 3 0  3.25 3 0  3.5 3 0  3.75 3 0  4 3 0  
0 3 0.125  0.25 3 0.125  0.5 3 0.125  0.75 3 0.125  1 3 0.125  1.25 3 0.125  1.5 3 0.125  1.75 3 0.125  2 3 0.125  2.25 3 0.125  2.5 3 0.125  2.75 3 0.125  3 3 0.125  3.25 3 0.125  3.5 3 0.125  3.75 3 0.125  4 3 0.125  
0 3 0.25  0.25 3 0.25  0.5 3 0.25  0.75 3 0.25  1 3 0.25  1.25 3 0.25  1.5 3 0.25  1.75 3 0.25  2 3 0.25  2.25 3 0.25  2.5 3 0.25  2.75 3 0.25  3 3 0.25  3.25 3 0.25  3.5 3 0.25  3.75 3 0.25  4 3 0.25  
0 3 0.375  0.25 3 0.375  0.5 3 0.375  0.75 3 0.375  1 3 0.375  1.25 3 0.375  1.5 3 0.375  1.75 3 0.375  2 3 0.375  2.25 3 0.375  2.5 3 0.375  2.75 3 0.375  3 3 0.375  3.25 3 0.375  3.5 3 0.375  3.75 3 0.375  4 3 0.375  
0 3 0.5  0.25 3 0.5  0.5 3 0.5  0.75 3 0.5  1 3 0.5  1.25 3 0.5  1.5 3 0.5  1.75 3 0.5  2 3 0.5  2.25 3 0.5  2.5 3 0.5  2.75 3 0.5  3 3 0.5  3.25 3 0.5  3.5 3 0.5  3.75 3 0.5  4 3 0.5  
0 3 0.625  0.25 3 0.625  0.5 3 0.625  0.75 3 0.625  1 3 0.625  1.25 3 0.625  1.5 3 0.625  1.75 3 0.625  2 3 0.625  2.25 3 0.625  2.5 3 0.625  2.75 3 0.625  3 3 0.625  3.25 3 0.625  3.5 3 0.625  3.75 3 0.625  4 3 0.625  
0 3 0.75  0.25 3 0.75  0.5 3 0.75  0.75 3 0.75  1 3 0.75  1.25 3 0.75  1.5 3 0.75  1.75 3 0.75  2 3 0.75  2.25 3 0.75  2.5 3 0.75  2.75 3 0.75  3 3 0.75  3.25 3 0.75  3.5 3 0.75  3.75 3 0.75  4 3 0.75  
0 3 0.875  0.25 3 0.875  0.5 3 0.875  0.75 3 0.875  1 3 0.875  1.25 3 0.875  1.5 3 0.875  1.75 3 0.875  2 3 0.875  2.25 3 0.875  2.5 3 0.875  2.75 3 0.875  3 3 0.875  3.25 3 0.875  3.5 3 0.875  3.75 3 0.875  4 3 0.875  
0 3 1  0.25 3 1  0.5 3 1  0.75 3 1  1 3 1  1.25 3 1  1.5 3 1  1.75 3 1  2 3 1  2.25 3 1  2.5 3 1  2.75 3 1  3 3 1  3.25 3 1  3.5 3 1  3.75 3 1  4 3 1  
0 3 1.125  0.25 3 1.125  0.5 3 1.125  0.75 3 1.125  1 3 1.125  1.25 3 1.125  1.5 3 1.125  1.75 3 1.125  2 3 1.125  2.25 3 1.125  2.5 3 1.125  2.75 3 1.125  3 3 1.125  3.25 3 1.125  3.5 3 1.125  3.75 3 1.125  4 3 1.125  
0 3 1.25  0.25 3 1.25  0.5 3 1.25  0.75 3 1.25  1 3 1.25  1.25 3 1.25  1.5 3 1.25  1.75 3 1.25  2 3 1.25  2.25 3 1.25  2.5 3 1.25  2.75 3 1.25  3 3 1.25  3.25 3 1.25  3.5 3 1.25  3.75 3 1.25  4 3 1.25  
0 3 1.375  0.25 3 1.375  0.5 3 1.375  0.75 3 1.375  1 3 1.375  1.25 3 1.375  1.5 3 1.375  1.75 3 1.375  2 3 1.375  2.25 3 1.375  2.5 3 1.375  2.75 3 1.375  3 3 1.375  3.25 3 1.375  3.5 3 1.375  3.75 3 1.375  4 3 1.375  
0 3 1.5  0.25 3 1.5  0.5 3 1.5  0.75 3 1.5  1 3 1.5  1.25 3 1.5  1.5 3 1.5  1.75 3 1.5  2 3 1.5  2.25 3 1.5  2.5 3 1.5  2.75 3 1.5  3 3 1.5  3.25 3 1.5  3.5 3 1.5  3.75 3 1.5  4 3 1.5  
0 3 1.625  0.25 3 1.625  0.5 3 1.625  0.75 3 1.625  1 3 1.625  1.25 3 1.625  1.5 3 1.625  1.75 3 1.625  2 3 1.625  2.25 3 1.625  2.5 3 1.625  2.75 3 1.625  3 3 1.625  3.25 3 1.625  3.5 3 1.625  3.75 3 1.625  4 3 1.625  
0 3 1.75  0.25 3 1.75  0.5 3 1.75  0.75 3 1.75  1 3 1.75  1.25 3 1.75  1.5 3 1.75  1.75 3 1.75  2 3 1.75  2.25 3 1.75  2.5 3 1.75  2.75 3 1.75  3 3 1.75  3.25 3 1.75  3.5 3 1.75  3.75 3 1.75  4 3 1.75  
0 3 1.875  0.25 3 1.875  0.5 3 1.875  0.75 3 1.875  1 3 1.875  1.25 3 1.875  1.5 3 1.875  1.75 3 1.875  2 3 1.875  2.25 3 1.875  2.5 3 1.875  2.75 3 1.875  3 3 1.875  3.25 3 1.875  3.5 3 1.875  3.75 3 1.875  4 3 1.875  
0 3 2  0.25 3 2  0.5 3 2  0.75 3 2  1 3 2  1.25 3 2  1.5 3 2  1.75 3 2  2 3 2  2.25 3 2  2.5 3 2  2.75 3 2  3 3 2  3.25 3 2  3.5 3 2  3.75 3 2  4 3 2  

0 2
0.125 1
0.25 1
0.375 1
0.5 1
0.625 1
0.75 1
0.875 1
1 1
1.125 1
1.25 1
1.375 1
1.5 1
1.625 1
1.75 1
1.875 1
2 2

0 2
0.25 1
0.5 1
0.75 1
1 1
1.25 1
1.5 1
1.75 1
2 1
2.25 1
2.5 1
2.75 1
3 1
3.25 1
3.5 1
3.75 1
4 2

9 0 0 0 0 1 1 17 17 17 17 0 0 0  0 0.1875 0  0 0.375 0  0 0.5625 0  0 0.75 0  0 0.9375 0  0 1.125 0  0 1.3125 0  0 1.5 0  0 1.6875 0  0 1.875 0  0 2.0625 0  0 2.25 0  0 2.4375 0  0 2.625 0  0 2.8125 0  0 3 0  
0.25 0 0  0.25 0.1875 0  0.25 0.375 0  0.25 0.5625 0  0.25 0.75 0  0.25 0.9375 0  0.25 1.125 0  0.25 1.3125 0  0.25 1.5 0  0.25 1.6875 0  0.25 1.875 0  0.25 2.0625 0  0.25 2.25 0  0.25 2.4375 0  0.25 2.625 0  0.25 2.8125 0  0.25 3 0  
0.5 0 0  0.5 0.1875 0  0.5 0.375 0  0.5 0.5625 0  0.5 0.75 0  0.5 0.9375 0  0.5 1.125 0  0.5 1.3125 0  0.5 1.5 0  0.5 1.6875 0  0.5 1.875 0  0.5 2.0625 0  0.5 2.25 0  0.5 2.4375 0  0.5 2.625 0  0.5 2.8125 0  0.5 3 0  
0.75 0 0  0.75 0.1875 0  0.75 0.375 0  0.75 0.5625 0  0.75 0.75 0  0.75 0.9375 0  0.75 1.125 0  0.75 1.3125 0  0.75 1.5 0  0.75 1.6875 0  0.75 1.875 0  0.75 2.0625 0  0.75 2.25 0  0.75 2.4375 0  0.75 2.625 0  0.75 2.8125 0  0.75 3 0  
1 0 0  1 0.1875 0  1 0.375 0  1 0.5625 0  1 0.75 0  1 0.9375 0  1 1.125 0  1 1.3125 0  1 1.5 0  1 1.6875 0  1 1.875 0  1 2.0625 0  1 2.25 0  1 2.4375 0  1 2.625 0  1 2.8125 0  1 3 0  
1.25 0 0  1.25 0.1875 0  1.25 0.375 0  1.25 0.5625 0  1.25 0.75 0  1.25 0.9375 0  1.25 1.125 0  1.25 1.3125 0  1.25 1.5 0  1.25 1.6875 0  1.25 1.875 0  1.25 2.0625 0  1.25 2.25 0  1.25 2.4375 0  1.25 2.625 0  1.25 2.8125 0  1.25 3 0  
1.5 0 0  1.5 0.1875 0  1.5 0.375 0  1.5 0.5625 0  1.5 0.75 0  1.5 0.9375 0  1.5 1.125 0  1.5 1.3125 0  1.5 1.5 0  1.5 1.6875 0  1.5 1.875 0  1.5 2.0625 0  1.5 2.25 0  1.5 2.4375 0  1.5 2.625 0  1.5 2.8125 0  1.5 3 0  
1.75 0 0  1.75 0.1875 0  1.75 0.375 0  1.75 0.5625 0  1.75 0.75 0  1.75 0.9375 0  1.75 1.125 0  1.75 1.3125 0  1.75 1.5 0  1.75 1.6875 0  1.75 1.875 0  1.75 2.0625 0  1.75 2.25 0  1.75 2.4375 0  1.75 2.625 0  1.75 2.8125 0  1.75 3 0  
2 0 0  2 0.1875 0  2 0.375 0  2 0.5625 0  2 0.75 0  2 0.9375 0  2 1.125 0  2 1.3125 0  2 1.5 0  2 1.6875 0  2 1.875 0  2 2.0625 0  2 2.25 0  2 2.4375 0  2 2.625 0  2 2.8125 0  2 3 0  
2.25 0 0  2.25 0.1875 0  2.25 0.375 0  2.25 0.5625 0  2.25 0.75 0  2.25 0.9375 0  2.25 1.125 0  2.25 1.3125 0  2.25 1.5 0  2.25 1.6875 0  2.25 1.875 0  2.25 2.0625 0  2.25 2.25 0  2.25 2.4375 0  2.25 2.625 0  2.25 2.8125 0  2.25 3 0  
2.5 0 0  2.5 0.1875 0  2.5 0.375 0  2.5 0.5625 0  2.5 0.75 0  2.5 0.9375 0  2.5 1.125 0  2.5 1.3125 0  2.5 1.5 0  2.5 1.6875 0  2.5 1.875 0  2.5 2.0625 0  2.5 2.25 0  2.5 2.4375 0  2.5 2.625 0  2.5 2.8125 0  2.5 3 0  
2.75 0 0  2.75 0.1875 0  2.75 0.375 0  2.75 0.5625 0  2.75 0.75 0  2.75 0.9375 0  2.75 1.125 0  2.75 1.3125 0  2.75 1.5 0  2.75 1.6875 0  2.75 1.875 0  2.75 2.0625 0  2.75 2.25 0  2.75 2.4375 0  2.75 2.625 0  2.75 2.8125 0  2.75 3 0  
3 0 0  3 0.1875 0  3 0.375 0  3 0.5625 0  3 0.75 0  3 0.9375 0  3 1.125 0  3 1.3125 0  3 1.5 0  3 1.6875 0  3 1.875 0  3 2.0625 0  3 2.25 0  3 2.4375 0  3 2.625 0  3 2.8125 0  3 3 0  
3.25 0 0  3.25 0.1875 0  3.25 0.375 0  3.25 0.5625 0  3.25 0.75 0  3.25 0.9375 0  3.25 1.125 0  3.25 1.3125 0  3.25 1.5 0  3.25 1.6875 0  3.25 1.875 0  3.25 2.0625 0  3.25 2.25 0  3.25 2.4375 0  3.25 2.625 0  3.25 2.8125 0  3.25 3 0  
3.5 0 0  3.5 0.1875 0  3.5 0.375 0  3.5 0.5625 0  3.5 0.75 0  3.5 0.9375 0  3.5 1.125 0  3.5 1.3125 0  3.5 1.5 0  3.5 1.6875 0  3.5 1.875 0  3.5 2.0625 0  3.5 2.25 0  3.5 2.4375 0  3.5 2.625 0  3.5 2.8125 0  3.5 3 0  
3.75 0 0  3.75 0.1875 0  3.75 0.375 0  3.75 0.5625 0  3.75 0.75 0  3.75 0.9375 0  3.75 1.125 0  3.75 1.3125 0  3.75 1.5 0  3.75 1.6875 0  3.75 1.875 0  3.75 2.0625 0  3.75 2.25 0  3.75 2.4375 0  3.75 2.625 0  3.75 2.8125 0  3.75 3 0  
4 0 0  4 0.1875 0  4 0.375 0  4 0.5625 0  4 0.75 0  4 0.9375 0  4 1.125 0  4 1.3125 0  4 1.5 0  4 1.6875 0  4 1.875 0  4 2.0625 0  4 2.25 0  4 2.4375 0  4 2.625 0  4 2.8125 0  4 3 0  

0 2
0.25 1
0.5 1
0.75 1
1 1
1.25 1
1.5 1
1.75 1
2 1
2.25 1
2.5 1
2.75 1
3 1
3.25 1
3.5 1
3.75 1
4 2

0 2
0.1875 1
0.375 1
0.5625 1
0.75 1
0.9375 1
1.125 1
1.3125 1
1.5 1
1.6875 1
1.875 1
2.0625 1
2.25 1
2.4375 1
2.625 1
2.8125 1
3 2

9 0 0 0 0 1 1 17 17 17 17 4 3 0  4 2.8125 0  4 2.625 0  4 2.4375 0  4 2.25 0  4 2.0625 0  4 1.875 0  4 1.6875 0  4 1.5 0  4 1.3125 0  4 1.125 0  4 0.9375 0  4 0.75 0  4 0.5625 0  4 0.375 0  4 0.1875 0  4 0 0  
4 3 0.125  4 2.8125 0.125  4 2.625 0.125  4 2.4375 0.125  4 2.25 0.125  4 2.0625 0.125  4 1.875 0.125  4 1.6875 0.125  4 1.5 0.125  4 1.3125 0.125  4 1.125 0.125  4 0.9375 0.125  4 0.75 0.125  4 0.5625 0.125  4 0.375 0.125  4 0.1875 0.125  4 0 0.125  
4 3 0.25  4 2.8125 0.25  4 2.625 0.25  4 2.4375 0.25  4 2.25 0.25  4 2.0625 0.25  4 1.875 0.25  4 1.6875 0.25  4 1.5 0.25  4 1.3125 0.25  4 1.125 0.25  4 0.9375 0.25  4 0.75 0.25  4 0.5625 0.25  4 0.375 0.25  4 0.1875 0.25  4 0 0.25  
4 3 0.375  4 2.8125 0.375  4 2.625 0.375  4 2.4375 0.375  4 2.25 0.375  4 2.0625 0.375  4 1.875 0.375  4 1.6875 0.375  4 1.5 0.375  4 1.3125 0.375  4 1.125 0.375  4 0.9375 0.375  4 0.75 0.375  4 0.5625 0.375  4 0.375 0.375  4 0.1875 0.375  4 0 0.375  
4 3 0.5  4 2.8125 0.5  4 2.625 0.5  4 2.4375 0.5  4 2.25 0.5  4 2.0625 0.5  4 1.875 0.5  4 1.6875 0.5  4 1.5 0.5  4 1.3125 0.5  4 1.125 0.5  4 0.9375 0.5  4 0.75 0.5  4 0.5625 0.5  4 0.375 0.5  4 0.1875 0.5  4 0 0.5  
4 3 0.625  4 2.8125 0.625  4 2.625 0.625  4 2.4375 0.625  4 2.25 0.625  4 2.0625 0.625  4 1.875 0.625  4 1.6875 0.625  4 1.5 0.625  4 1.3125 0.625  4 1.125 0.625  4 0.9375 0.625  4 0.75 0.625  4 0.5625 0.625  4 0.375 0.625  4 0.1875 0.625  4 0 0.625  
4 3 0.75  4 2.8125 0.75  4 2.625 0.75  4 2.4375 0.75  4 2.25 0.75  4 2.0625 0.75  4 1.875 0.75  4 1.6875 0.75  4 1.5 0.75  4 1.3125 0.75  4 1.125 0.75  4 0.9375 0.75  4 0.75 0.75  4 0.5625 0.75  4 0.375 0.75  4 0.1875 0.75  4 0 0.75  
4 3 0.875  4 2.8125 0.875  4 2.625 0.875  4 2.4375 0.875  4 2.25 0.875  4 2.0625 0.875  4 1.875 0.875  4 1.6875 0.875  4 1.5 0.875  4 1.3125 0.875  4 1.125 0.875  4 0.9375 0.875  4 0.75 0.875  4 0.5625 0.875  4 0.375 0.875  4 0.1875 0.875  4 0 0.875  
4 3 1  4 2.8125 1  4 2.625 1  4 2.4375 1  4 2.25 1  4 2.0625 1  4 1.875 1  4 1.6875 1  4 1.5 1  4 1.3125 1  4 1.125 1  4 0.9375 1  4 0.75 1  4 0.5625 1  4 0.375 1  4 0.1875 1  4 0 1  
4 3 1.125  4 2.8125 1.125  4 2.625 1.125  4 2.4375 1.125  4 2.25 1.125  4 2.0625 1.125  4 1.875 1.125  4 1.6875 1.125  4 1.5 1.125  4 1.3125 1.125  4 1.125 1.125  4 0.9375 1.125  4 0.75 1.125  4 0.5625 1.125  4 0.375 1.125  4 0.1875 1.125  4 0 1.125  
4 3 1.25  4 2.8125 1.25  4 2.625 1.25  4 2.4375 1.25  4 2.25 1.25  4 2.0625 1.25  4 1.875 1.25  4 1.6875 1.25  4 1.5 1.25  4 1.3125 1.25  4 1.125 1.25  4 0.9375 1.25  4 0.75 1.25  4 0.5625 1.25  4 0.375 1.25  4 0.1875 1.25  4 0 1.25  
4 3 1.375  4 2.8125 1.375  4 2.625 1.375  4 2.4375 1.375  4 2.25 1.375  4 2.0625 1.375  4 1.875 1.375  4 1.6875 1.375  4 1.5 1.375  4 1.3125 1.375  4 1.125 1.375  4 0.9375 1.375  4 0.75 1.375  4 0.5625 1.375  4 0.375 1.375  4 0.1875 1.375  4 0 1.375  
4 3 1.5  4 2.8125 1.5  4 2.625 1.5  4 2.4375 1.5  4 2.25 1.5  4 2.0625 1.5  4 1.875 1.5  4 1.6875 1.5  4 1.5 1.5  4 1.3125 1.5  4 1.125 1.5  4 0.9375 1.5  4 0.75 1.5  4 0.5625 1.5  4 0.375 1.5  4 0.1875 1.5  4 0 1.5  
4 3 1.625  4 2.8125 1.625  4 2.625 1.625  4 2.4375 1.625  4 2.25 1.625  4 2.0625 1.625  4 1.875 1.625  4 1.6875 1.625  4 1.5 1.625  4 1.3125 1.625  4 1.125 1.625  4 0.9375 1.625  4 0.75 1.625  4 0.5625 1.625  4 0.375 1.625  4 0.1875 1.625  4 0 1.625  
4 3 1.75  4 2.8125 1.75  4 2.625 1.75  4 2.4375 1.75  4 2.25 1.75  4 2.0625 1.75  4 1.875 1.75  4 1.6875 1.75  4 1.5 1.75  4 1.3125 1.75  4 1.125 1.75  4 0.9375 1.75  4 0.75 1.75  4 0.5625 1.75  4 0.375 1.75  4 0.1875 1.75  4 0 1.75  
4 3 1.875  4 2.8125 1.875  4 2.625 1.875  4 2.4375 1.875  4 2.25 1.875  4 2.0625 1.875  4 1.875 1.875  4 1.6875 1.875  4 1.5 1.875  4 1.3125 1.875  4 1.125 1.875  4 0.9375 1.875  4 0.75 1.875  4 0.5625 1.875  4 0.375 1.875  4 0.1875 1.875  4 0 1.875  
4 3 2  4 2.8125 2  4 2.625 2  4 2.4375 2  4 2.25 2  4 2.0625 2  4 1.875 2  4 1.6875 2  4 1.5 2  4 1.3125 2  4 1.125 2  4 0.9375 2  4 0.75 2  4 0.5625 2  4 0.375 2  4 0.1875 2  4 0 2  

0 2
0.125 1
0.25 1
0.375 1
0.5 1
0.625 1
0.75 1
0.875 1
1 1
1.125 1
1.25 1
1.375 1
1.5 1
1.625 1
1.75 1
1.875 1
2 2

-3 2
-2.8125 1
-2.625 1
-2.4375 1
-2.25 1
-2.0625 1
-1.875 1
-1.6875 1
-1.5 1
-1.3125 1
-1.125 1
-0.9375 1
-0.75 1
-0.5625 1
-0.375 1
-0.1875 1
0 2

Triangulations 0

TShapes 35
Ve
1e-07
0 0 0
0 0

0101101
*
Ve
1e-07
0 0 2
0 0

0101101
*
Ed
 1e-07 1 1 0
1  1 0 0 2
2  1 1 0 0 2
0 -2.16840434497101e-18 2 0
2  2 2 0 0 2
0 0 2 0
0

0101000
+35 0 -34 0 *
Ve
1e-07
0 3 2
0 0

0101101
*
Ed
 1e-07 1 1 0
1  2 0 0 3
2  3 1 0 0 3
2 0 2 -3
2  4 3 0 0 3
0 6.88468379528295e-18 0 3
0

0101000
+34 0 -32 0 *
Ve
1e-07
0 3 0
0 0

0101101
*
Ed
 1e-07 1 1 0
1  3 0 0 2
2  5 1 0 0 2
0 -3 2 -3
2  6 4 0 0 2
0 0 2 0
0

0101000
+30 0 -32 0 *
Ed
 1e-07 1 1 0
1  4 0 0 3
2  7 1 0 0 3
0 -2.16840434497101e-18 0 -3
2  8 5 0 0 3
0 6.88468379528295e-18 0 3
0

0101000
+35 0 -30 0 *
Wi

0101100
+33 0 +31 0 -29 0 -28 0 *
Fa
0  1e-07 1 0

0101000
-27 0 *
Ve
1e-07
4 0 0
0 0

0101101
*
Ve
1e-07
4 0 2
0 0

0101101
*
Ed
 1e-07 1 1 0
1  5 0 0 2
2  9 6 0 0 2
0 -2.16840434497101e-18 2 0
2  10 2 0 0 2
0 4 2 4
0

0101000
+25 0 -24 0 *
Ve
1e-07
4 3 0
0 0

0101101
*
Ed
 1e-07 1 1 0
1  6 0 0 3
2  11 6 0 0 3
0 -2.16840434497101e-18 0 -3
2  12 5 0 0 3
4 4.71627945031194e-18 4 3
0

0101000
+25 0 -22 0 *
Ve
1e-07
4 3 2
0 0

0101101
*
Ed
 1e-07 1 1 0
1  7 0 0 2
2  13 6 0 0 2
0 -3 2 -3
2  14 4 0 0 2
0 4 2 4
0

0101000
+22 0 -20 0 *
Ed
 1e-07 1 1 0
1  8 0 0 3
2  15 6 0 0 3
2 0 2 -3
2  16 3 0 0 3
4 4.71627945031194e-18 4 3
0

0101000
+24 0 -20 0 *
Wi

0101100
-23 0 +21 0 +19 0 -18 0 *
Fa
0  1e-07 6 0

0101000
+17 0 *
Ed
 1e-07 1 1 0
1  9 0 0 4
2  17 2 0 0 4
0 0 0 4
2  18 5 0 0 4
0 6.88468379528295e-18 4 4.71627945031194e-18
0

0101000
+35 0 -25 0 *
Ed
 1e-07 1 1 0
1  10 0 0 4
2  19 2 0 0 4
2 0 2 4
2  20 3 0 0 4
0 6.88468379528295e-18 4 4.71627945031194e-18
0

0101000
+34 0 -24 0 *
Wi

0101100
+15 0 +23 0 -14 0 -33 0 *
Fa
0  1e-07 2 0

0101000
-13 0 *
Ed
 1e-07 1 1 0
1  11 0 0 4
2  21 4 0 0 4
0 0 0 4
2  22 5 0 0 4
0 3 4 3
0

0101000
+30 0 -22 0 *
Ed
 1e-07 1 1 0
1  12 0 0 4
2  23 4 0 0 4
2 0 2 4
2  24 3 0 0 4
0 3 4 3
0

0101000
+32 0 -20 0 *
Wi

0101100
-11 0 +29 0 +10 0 -19 0 *
Fa
0  1e-07 4 0

0101000
+9 0 *
Wi

0101100
+28 0 +11 0 -21 0 -15 0 *
Fa
0  1e-07 5 0

0101000
-7 0 *
Wi

0101100
-31 0 +14 0 +18 0 -10 0 *
Fa
0  1e-07 3 0

0101000
+5 0 *
Sh

0101100
-26 0 +16 0 -12 0 +8 0 -6 0 +4 0 *
So

0100000
+3 0 *
Co

1100000
+2 0 *

+1 0 
##EGADS HEADER FILE-REV 1 ##
1
2 14 1
_cfgpmtr_numcp
 1.700000000000e+01
  1  1  6  6  12  8  2
1 5 1
_body
2
1 5 1
_brch
228
    2 0 5
1 5 2
_body
1 1 
1 5 2
_brch
227 1 
1 5 2
_hist
1 2 
1 9 4
__trace__
1 1 2 1 
1 7 3
_faceID
1 1 1 
    2 1 5
1 5 2
_body
1 2 
1 5 2
_brch
227 2 
1 5 2
_hist
1 2 
1 9 4
__trace__
1 2 2 2 
1 7 3
_faceID
1 2 1 
    2 2 5
1 5 2
_body
1 3 
1 5 2
_brch
227 3 
1 5 2
_hist
1 2 
1 9 4
__trace__
1 3 2 3 
1 7 3
_faceID
1 3 1 
    2 3 5
1 5 2
_body
1 4 
1 5 2
_brch
227 4 
1 5 2
_hist
1 2 
1 9 4
__trace__
1 4 2 4 
1 7 3
_faceID
1 4 1 
    2 4 5
1 5 2
_body
1 5 
1 5 2
_brch
227 5 
1 5 2
_hist
1 2 
1 9 4
__trace__
1 5 2 5 
1 7 3
_faceID
1 5 1 
    2 5 5
1 5 2
_body
1 6 
1 5 2
_brch
227 6 
1 5 2
_hist
1 2 
1 9 4
__trace__
1 6 2 6 
1 7 3
_faceID
1 6 1 
    4 0 4
1 5 2
_body
2 10003 
1 6 1
_nface
2
1 9 4
__trace__
1 1 2 1 
1 7 5
_edgeID
1 1 1 3 1 
    4 1 4
1 5 2
_body
2 10006 
1 6 1
_nface
2
1 9 4
__trace__
1 2 2 2 
1 7 5
_edgeID
1 1 1 6 1 
    4 2 4
1 5 2
_body
2 40001 
1 6 1
_nface
2
1 9 4
__trace__
1 3 2 3 
1 7 5
_edgeID
1 1 1 4 1 
    4 3 4
1 5 2
_body
2 50001 
1 6 1
_nface
2
1 9 4
__trace__
1 4 2 4 
1 7 5
_edgeID
1 1 1 5 1 
    4 4 4
1 5 2
_body
2 30002 
1 6 1
_nface
2
1 9 4
__trace__
1 5 2 5 
1 7 5
_edgeID
1 2 1 3 1 
    4 5 4
1 5 2
_body
2 20005 
1 6 1
_nface
2
1 9 4
__trace__
1 8 2 6 
1 7 5
_edgeID
1 2 1 5 1 
    4 6 4
1 5 2
_body
2 20004 
1 6 1
_nface
2
1 9 4
__trace__
1 7 2 7 
1 7 5
_edgeID
1 2 1 4 1 
    4 7 4
1 5 2
_body
2 60002 
1 6 1
_nface
2
1 9 4
__trace__
1 6 2 8 
1 7 5
_edgeID
1 2 1 6 1 
    4 8 4
1 5 2
_body
2 30005 
1 6 1
_nface
2
1 9 4
__trace__
1 9 2 9 
1 7 5
_edgeID
1 3 1 5 1 
    4 9 4
1 5 2
_body
2 60003 
1 6 1
_nface
2
1 9 4
__trace__
1 10 2 10 
1 7 5
_edgeID
1 3 1 6 1 
    4 10 4
1 5 2
_body
2 50004 
1 6 1
_nface
2
1 9 4
__trace__
1 11 2 11 
1 7 5
_edgeID
1 4 1 5 1 
    4 11 4
1 5 2
_body
2 40006 
1 6 1
_nface
2
1 9 4
__trace__
1 12 2 12 
1 7 5
_edgeID
1 4 1 6 1 
    5 0 3
1 6 1
_nedge
3
1 9 4
__trace__
1 2 2 1 
1 7 1
_nodeID
1
    5 1 3
1 6 1
_nedge
3
1 9 4
__trace__
1 1 2 2 
1 7 1
_nodeID
2
    5 2 3
1 6 1
_nedge
3
1 9 4
__trace__
1 3 2 3 
1 7 1
_nodeID
3
    5 3 3
1 6 1
_nedge
3
1 9 4
__trace__
1 4 2 4 
1 7 1
_nodeID
4
    5 4 3
1 6 1
_nedge
3
1 9 4
__trace__
1 6 2 5 
1 7 1
_nodeID
5
    5 5 3
1 6 1
_nedge
3
1 9 4
__trace__
1 5 2 6 
1 7 1
_nodeID
6
    5 6 3
1 6 1
_nedge
3
1 9 4
__trace__
1 8 2 7 
1 7 1
_nodeID
7
    5 7 3
1 6 1
_nedge
3
1 9 4
__trace__
1 7 2 8 
1 7 1
_nodeID
8
    0 0 0
